<?xml version="1.0" encoding="UTF-8"?>
<svg width="123px" height="84px" viewBox="0 0 123 84" version="1.1" xmlns="http://www.w3.org/2000/svg" xmlns:xlink="http://www.w3.org/1999/xlink">
    <title>Group</title>
    <g id="Page-1" stroke="none" stroke-width="1" fill="none" fill-rule="evenodd">
        <g id="Group" transform="translate(0, -3)" fill="#FFFFFF">
            <path d="M3.29529684,10.8010023 L38.3475627,40.5954283 C39.1891777,41.310801 39.2915172,42.5729889 38.5761445,43.4146038 C38.5412082,43.4557054 38.5046232,43.4953768 38.4664795,43.5335205 L3.41421356,78.5857864 C2.63316498,79.366835 1.36683502,79.366835 0.585786438,78.5857864 C0.210713681,78.2107137 1.18349774e-13,77.7020059 1.1812773e-13,77.1715729 L1.13686838e-13,12.3248809 C1.13686838e-13,11.2203115 0.8954305,10.3248809 2,10.3248809 C2.47457996,10.3248809 2.93369571,10.4936414 3.29529684,10.8010023 Z" id="Path"></path>
            <path d="M86.3062537,10.8516438 L121.359256,41.0848582 C122.19569,41.8062822 122.288923,43.0691753 121.567499,43.905609 C121.532669,43.9459914 121.496238,43.9849646 121.458294,44.0224351 L86.4052913,78.6372748 C85.619346,79.4133958 84.3530411,79.4054316 83.5769202,78.6194863 C83.2072754,78.2451625 83,77.7402706 83,77.214195 L83,12.3661409 C83,11.2615714 83.8954305,10.3661409 85,10.3661409 C85.479542,10.3661409 85.9431212,10.538442 86.3062537,10.8516438 Z" id="Path" transform="translate(103, 45) scale(-1, 1) translate(-103, -45)"></path>
            <path d="M8.27845294,6.54078864 L60.7137191,49.9354917 C61.4585277,50.551885 62.5376185,50.5472686 63.277126,49.9245254 L114.808336,6.5298224 C115.653233,5.8183297 115.76138,4.55662609 115.049887,3.71172851 C114.669876,3.26046603 114.110018,3 113.520064,3 L9.55358837,3 C8.44901887,3 7.55358837,3.8954305 7.55358837,5 C7.55358837,5.59594005 7.81934412,6.16083651 8.27845294,6.54078864 Z" id="Path"></path>
            <path d="M10.7024689,87 L114.129369,87 C115.233938,87 116.129369,86.1045695 116.129369,85 C116.129369,84.465314 115.915272,83.9528906 115.534879,83.5771371 L79.2993548,47.783509 C78.5634558,47.0565843 77.394679,47.0107396 76.604102,47.677789 L63.2513469,58.944176 C62.5235063,59.5582915 61.4636032,59.5740379 60.7178408,58.9818147 L46.4235198,47.6304422 C45.6163038,46.9894178 44.4541079,47.066888 43.7391151,47.8093805 L9.26182843,83.6127166 C8.49565298,84.4083604 8.51954175,85.674465 9.31518549,86.4406404 C9.68785783,86.7995101 10.1850985,87 10.7024689,87 Z" id="Path"></path>
        </g>
    </g>
</svg>