<svg xmlns="http://www.w3.org/2000/svg" viewBox="0 0 96 96">
  <title>all-mail</title>
  <path d="M67.33,25.44a3.23,3.23,0,0,1,3.23,3.23v9.66H60.44a3.3,3.3,0,0,0-3.13,2.52,9.64,9.64,0,0,1-18.62,0,3.3,3.3,0,0,0-3.13-2.52H25.44V28.67a3.23,3.23,0,0,1,3.23-3.23ZM25.44,19A6.46,6.46,0,0,0,19,25.44V48a6.46,6.46,0,0,0,6.44,6.44H70.56A6.46,6.46,0,0,0,77,48V25.44A6.46,6.46,0,0,0,70.56,19ZM22.22,60.89A3.23,3.23,0,0,0,19,64.11v6.45A6.46,6.46,0,0,0,25.44,77H70.56A6.46,6.46,0,0,0,77,70.56V64.11a3.23,3.23,0,0,0-3.22-3.22H60.47a3.35,3.35,0,0,0-3.16,2.58,9.66,9.66,0,0,1-18.62,0,3.35,3.35,0,0,0-3.16-2.58Z" fill="#fff"/>
</svg>
