<svg xmlns="http://www.w3.org/2000/svg" viewBox="0 0 96 96">
  <title>archive</title>
  <path d="M67.11,22.22l3,3.22H25.83l2.61-3.22ZM52.57,38.59a2,2,0,0,1,1.87,2V51.22h5.12a2.05,2.05,0,0,1,1.33,3.46L49,66.29a1.78,1.78,0,0,1-2.65,0L35.41,54.68a2,2,0,0,1,1.31-3.46h4.84V40.61a2,2,0,0,1,1.87-2ZM28.67,19a4.8,4.8,0,0,0-3.74,1.77l-4.45,5.42A6.31,6.31,0,0,0,19,30.28V70.56A6.46,6.46,0,0,0,25.44,77H70.56A6.46,6.46,0,0,0,77,70.56V30.28a6.31,6.31,0,0,0-1.48-4.09L71,20.77A4.69,4.69,0,0,0,67.33,19Z" fill="#fff"/>
  <rect width="96" height="96" fill="none"/>
</svg>
