<svg xmlns="http://www.w3.org/2000/svg" viewBox="0 0 96 96">
  <title>attachment-pass</title>
  <path d="M38.83,62.67V33.33A7.34,7.34,0,0,1,46.17,26h33V22.33A7.36,7.36,0,0,0,71.83,15H20.5a7.33,7.33,0,0,0-7.33,7.33V73.67A7.33,7.33,0,0,0,20.5,81H71.83a7.36,7.36,0,0,0,7.34-7.33V70h-33A7.34,7.34,0,0,1,38.83,62.67Zm11-29.34A3.68,3.68,0,0,0,46.17,37V59a3.68,3.68,0,0,0,3.66,3.67h33V33.33Zm11,20.17a5.5,5.5,0,1,1,5.5-5.5A5.5,5.5,0,0,1,60.83,53.5Z" fill="#fff"/>
  <rect width="96" height="96" fill="none"/>
</svg>
