<svg xmlns="http://www.w3.org/2000/svg" viewBox="0 0 96 96">
  <title>attachment-audio</title>
  <g>
    <path d="M43.67,48.74q0-15,0-30a4.32,4.32,0,1,1,8.64-.14c0,4.22,0,8.43,0,12.64V78.68A4.37,4.37,0,0,1,49,83.21a4.32,4.32,0,0,1-5.36-4.32c0-4.64,0-9.29,0-13.93Z" fill="#fff"/>
    <path d="M65.3,48.74V68a4.32,4.32,0,1,1-8.64.07c0-5.5,0-11,0-16.49q0-11.08,0-22.17a4.3,4.3,0,0,1,6.53-3.83,4.25,4.25,0,0,1,2.12,3.9Z" fill="#fff"/>
    <path d="M17.72,48.67c0-5.7,0-11.4,0-17.1a4.3,4.3,0,0,1,6.53-3.83,4.24,4.24,0,0,1,2.11,3.9q0,6.72,0,13.45,0,10.36,0,20.75a4.32,4.32,0,1,1-8.64.07C17.71,60.16,17.72,54.42,17.72,48.67Z" fill="#fff"/>
    <path d="M39.34,48.78c0,2.86,0,5.72,0,8.58a4.3,4.3,0,0,1-6.56,3.7,4.06,4.06,0,0,1-2.07-3.64q0-8.69,0-17.37a4.32,4.32,0,0,1,8.63.07C39.36,43,39.34,45.89,39.34,48.78Z" fill="#fff"/>
    <path d="M78.28,48.78c0,2.86,0,5.72,0,8.58a4.3,4.3,0,0,1-6.56,3.7,4.09,4.09,0,0,1-2.07-3.64q0-8.69,0-17.37a4.32,4.32,0,1,1,8.63.08C78.3,43,78.28,45.89,78.28,48.78Z" fill="#fff"/>
  </g>
  <rect width="96" height="96" fill="none"/>
</svg>
