<svg xmlns="http://www.w3.org/2000/svg" viewBox="0 0 96 96">
  <title>attachment-pass</title>
  <path d="M38.28,63.56V32.44a7.77,7.77,0,0,1,7.78-7.77h35V20.78A7.8,7.8,0,0,0,73.28,13H18.83a7.77,7.77,0,0,0-7.77,7.78V75.22A7.77,7.77,0,0,0,18.83,83H73.28a7.8,7.8,0,0,0,7.78-7.78V71.33h-35A7.77,7.77,0,0,1,38.28,63.56ZM49.94,32.44a3.9,3.9,0,0,0-3.88,3.89V59.67a3.9,3.9,0,0,0,3.88,3.89h35V32.44ZM61.61,53.83A5.83,5.83,0,1,1,67.44,48,5.82,5.82,0,0,1,61.61,53.83Z" fill="#fff"/>
  <rect width="96" height="96" fill="none"/>
</svg>
