<svg xmlns="http://www.w3.org/2000/svg" viewBox="0 0 96 96">
  <title>attachment-pdf</title>
  <path d="M22.25,86.62a7.55,7.55,0,0,1-1.87-.24,8.25,8.25,0,0,1-5.9-6.29c-.72-3.35.61-6.67,3.65-9.11C20.56,69,25.86,66.53,31.7,64.1c.74-2.14,1.54-4.42,2.35-6.76,2.42-6.93,5.12-14.69,7.29-21.55-3.61-5.67-6.51-11.12-7.1-14.68a9,9,0,0,1,3.54-9,9.17,9.17,0,0,1,9.49-.67c2.8,1.54,4.31,4.5,4.13,8.13-.16,3.37-1.54,8.87-3.5,15.33,4.42,6.67,9.79,13.84,13.5,18.48C72,50.42,77,51.94,79.28,54c1.48,1.31,3,3.79,2,8.12-1.11,4.66-3.75,6.2-5.78,6.68-6.39,1.49-13.82-6-16.13-8.51-.84.27-1.69.57-2.57.9-4.37,1.47-12.71,4.43-20.26,7.45-.88,2.68-3.49,9.69-8,14.9A8.3,8.3,0,0,1,22.25,86.62Zm6.51-14.7a37,37,0,0,0-6.88,3.75c-1.24,1-1.77,2.08-1.54,3.16a2.29,2.29,0,0,0,1.54,1.74c.67.17,1.37-.16,2.09-1A33.34,33.34,0,0,0,28.76,71.92ZM66,58.45c3.12,2.86,6.58,4.86,8.14,4.48.73-.17,1.14-1.46,1.32-2.22s.35-1.81-.13-2.24C74.26,57.55,70.91,57.42,66,58.45ZM45.59,42.16c-1.84,5.59-3.9,11.51-5.87,17.15-.22.63-.43,1.25-.65,1.86,7.46-2.86,14.26-5.17,15.71-5.66l.55-.2C52.8,52.07,49.15,47.27,45.59,42.16ZM43.15,16.38a3.39,3.39,0,0,0-1.9.6,3,3,0,0,0-1.08,3.16c.29,1.82,1.6,4.62,3.47,7.89a47.36,47.36,0,0,0,1.77-8.78c.06-1.3-.28-2.17-1-2.58A2.6,2.6,0,0,0,43.15,16.38Z" fill="#fff"/>
  <rect width="96" height="96" fill="none"/>
</svg>
