<svg xmlns="http://www.w3.org/2000/svg" viewBox="0 0 96 96">
  <title>attachment-xls</title>
  <path d="M82,20.88a3.06,3.06,0,0,0-2.56-1.39H16.66a3,3,0,0,0-2.43,1.23A3,3,0,0,0,13,23.15V71.57A3,3,0,0,0,14.23,74a3,3,0,0,0,2.43,1.23H79.41A4.28,4.28,0,0,0,83,71.57V23.15A3.07,3.07,0,0,0,82,20.88ZM19.08,42.13H35.32V52.59H19.08Zm22.32,0H76.92V52.59H41.4ZM76.92,36H41.4V25.57H76.92Zm-41.6,0H19.08V25.57H35.32ZM19.08,58.68H35.32V69.15H19.08Zm22.32,0H76.92V69.15H41.4Z" fill="#fff"/>
  <rect width="96" height="96" fill="none"/>
</svg>
