<svg xmlns="http://www.w3.org/2000/svg" viewBox="0 0 96 96">
  <title>attachment-zip</title>
  <g>
    <path d="M47.25,63.26a3,3,0,0,0-2.16,2.17,3,3,0,0,0,3.66,3.65,3,3,0,0,0,2.16-2.16A3,3,0,0,0,47.25,63.26Z" fill="#fff"/>
    <path d="M72.89,12H23.11C19.2,12,16,15.6,16,20V76c0,4.4,3.2,8,7.11,8H72.89C76.8,84,80,80.4,80,76V20C80,15.6,76.8,12,72.89,12ZM47.53,14.11,50.46,14a1,1,0,0,1,1,1v1.78a1,1,0,0,1-1.5.85L47.07,16A1,1,0,0,1,47.53,14.11ZM50,41.32l-4.43-2.51a1,1,0,0,1,0-1.7L50,34.59a1,1,0,0,1,1.5.86v5A1,1,0,0,1,50,41.32Zm1.5,5.92V49a1,1,0,0,1-1,1l-2.93-.11a1,1,0,0,1-.46-1.84L50,46.39A1,1,0,0,1,51.5,47.24ZM50,29.53,45.57,27a1,1,0,0,1,0-1.71L50,22.8a1,1,0,0,1,1.5.85v5A1,1,0,0,1,50,29.53ZM43.5,17.75A1,1,0,0,1,45,16.9l4.43,2.52a1,1,0,0,1,0,1.7L45,23.63a1,1,0,0,1-1.5-.85Zm0,11.8A1,1,0,0,1,45,28.7l4.43,2.51a1,1,0,0,1,0,1.7L45,35.43a1,1,0,0,1-1.5-.85Zm0,11.79a1,1,0,0,1,1.5-.85L49.43,43a1,1,0,0,1,0,1.7L45,47.22a1,1,0,0,1-1.5-.85Zm3.88,30.41A6.2,6.2,0,0,1,42,65.5l1.08-12.35a1.51,1.51,0,0,1,1.5-1.37h6.84a1.51,1.51,0,0,1,1.5,1.38L54,65.78A6,6,0,0,1,47.38,71.75Z" fill="#fff"/>
  </g>
</svg>
