<svg xmlns="http://www.w3.org/2000/svg" viewBox="0 0 96 96">
  <title>attachment-ppt</title>
  <g>
    <path d="M21.5,70.94h53a3,3,0,1,0,0-6h-53a3,3,0,1,0,0,6Z" fill="#fff"/>
    <path d="M70.71,78H25.29a3,3,0,1,0,0,6H70.71a3,3,0,0,0,0-6Z" fill="#fff"/>
  </g>
  <path d="M46,16.11V55.24a2.22,2.22,0,0,1-2.69,2.18,22.32,22.32,0,0,1,0-43.48A2.21,2.21,0,0,1,46,16.11Zm4.5,0V31.22a2.23,2.23,0,0,0,2.22,2.22H67.75a2.22,2.22,0,0,0,2.17-2.71A22.27,22.27,0,0,0,53.18,13.94,2.22,2.22,0,0,0,50.47,16.11Zm0,24v15.1a2.23,2.23,0,0,0,2.71,2.18A22.33,22.33,0,0,0,70,40.6a2.24,2.24,0,0,0-2.18-2.7H52.71A2.26,2.26,0,0,0,50.47,40.14Z" fill="#fff"/>
</svg>
