<svg xmlns="http://www.w3.org/2000/svg" viewBox="0 0 96 96">
  <title>bull-list</title>
  <path d="M33.41,20.76a3.89,3.89,0,1,0,0,7.78h46.7a3.89,3.89,0,1,0,0-7.78Zm-15.57-2a5.84,5.84,0,1,0,5.84,5.84,5.83,5.83,0,0,0-5.84-5.84Zm15.57,25.3a3.89,3.89,0,1,0,0,7.78h46.7a3.89,3.89,0,1,0,0-7.78Zm-15.57-2A5.84,5.84,0,1,0,23.68,48a5.83,5.83,0,0,0-5.84-5.84Zm15.57,25.3a3.89,3.89,0,1,0,0,7.78h46.7a3.89,3.89,0,1,0,0-7.78ZM17.84,65.51a5.84,5.84,0,1,0,5.84,5.84,5.86,5.86,0,0,0-5.84-5.84Z" fill="#fff"/>
  <rect width="96" height="96" fill="none"/>
</svg>
