<svg xmlns="http://www.w3.org/2000/svg" viewBox="0 0 96 96">
  <title>car</title>
  <path d="M74.05,21.84a5.81,5.81,0,0,0-5.48-3.79H27.43A5.85,5.85,0,0,0,22,21.84L14,44.26V74.18A4.08,4.08,0,0,0,18.08,78h3.74a3.58,3.58,0,0,0,3.51-3.77V70.67H70.67v3.51A3.58,3.58,0,0,0,74.18,78h3.74A4.08,4.08,0,0,0,82,74.18V44.26ZM27.43,59.22A5.61,5.61,0,1,1,33,53.61,5.6,5.6,0,0,1,27.43,59.22Zm41.14,0a5.61,5.61,0,1,1,5.61-5.61A5.6,5.6,0,0,1,68.57,59.22ZM21.82,40.71l5.61-17H68.57l5.61,17Z" fill="#fff"/>
  <rect width="96" height="96" fill="none"/>
</svg>
