<svg xmlns="http://www.w3.org/2000/svg" viewBox="0 0 96 96">
  <title>code</title>
  <path d="M30.47,23.49a4.33,4.33,0,0,0-3.07,1.28L7.28,44.89a4.36,4.36,0,0,0,0,6.18L27.4,71.23a4.34,4.34,0,0,0,6.14-6.14L16.44,48l17.1-17.09a4.32,4.32,0,0,0,0-6.14,4.37,4.37,0,0,0-3.07-1.28Zm35.06,0a4.37,4.37,0,0,0-3.07,1.28,4.32,4.32,0,0,0,0,6.14L79.56,48,62.46,65.09a4.32,4.32,0,0,0,0,6.14,4.32,4.32,0,0,0,6.14,0L88.72,51.07a4.36,4.36,0,0,0,0-6.18L68.6,24.77a4.33,4.33,0,0,0-3.07-1.28Z" fill="#fff"/>
  <rect width="96" height="96" fill="none"/>
</svg>
