<svg xmlns="http://www.w3.org/2000/svg" viewBox="0 0 96 96">
  <title>finance</title>
  <path d="M53.2,71.22V80H43.39V71.15c-6.28-1.39-11.64-5.56-12-13h7.19c.36,4,3,7.11,9.74,7.11,7.23,0,8.83-3.72,8.83-6.06,0-3.15-1.63-6.14-9.81-8.17C38.19,48.78,32,44.88,32,37.05c0-6.54,5.1-10.81,11.44-12.23V16H53.2v8.92A13.38,13.38,0,0,1,63.69,37.83H56.47c-.2-4.23-2.36-7.11-8.18-7.11-5.52,0-8.82,2.57-8.82,6.27,0,3.22,2.38,5.28,9.8,7.28s15.37,5.29,15.37,14.91C64.64,66.13,59.57,70,53.2,71.22Z" fill="#fff"/>
</svg>
