<svg xmlns="http://www.w3.org/2000/svg" viewBox="0 0 96 96">
  <title>finance</title>
  <path d="M54.5,77V88H42.24V76.94c-7.85-1.74-14.55-7-15-16.23h9c.45,5,3.76,8.89,12.18,8.89,9,0,11-4.65,11-7.57,0-4-2-7.67-12.26-10.22-11.4-2.83-19.2-7.71-19.2-17.5,0-8.17,6.37-13.51,14.3-15.29V8H54.5V19.15A16.73,16.73,0,0,1,67.61,35.29h-9c-.24-5.3-2.94-8.89-10.21-8.89-6.91,0-11,3.22-11,7.83,0,4,3,6.61,12.26,9.11S68.8,50,68.8,62C68.8,70.66,62.46,75.46,54.5,77Z" fill="#fff"/>
  <rect width="96" height="96" fill="none"/>
</svg>
