<svg xmlns="http://www.w3.org/2000/svg" viewBox="0 0 96 96">
  <title>flag</title>
  <path d="M73.44,50.43a1.68,1.68,0,0,0-1.19-1.3c-1-.28-7.86-3.88-11.38-11.85,3.74-2.58,12.22-9.64,12.22-17.79a1.71,1.71,0,0,0-.71-1.37,1.68,1.68,0,0,0-1.52-.21l-1.74.6a39.8,39.8,0,0,1-11.69,1.54,50.91,50.91,0,0,1-10.58-1.48A54.25,54.25,0,0,0,35.41,17c-7.85,0-10.85,1.64-11.59,2.15l-.56.39a1.65,1.65,0,0,0-.73,1.37V76.37a1.24,1.24,0,0,0,0,.33,2.63,2.63,0,0,0,5.23-.33v-24a62.84,62.84,0,0,1,7.61-.5A48.15,48.15,0,0,1,45.6,53.28a73.29,73.29,0,0,0,11.74,1.61c8.71.44,13.82-1.56,15.47-2.81A1.69,1.69,0,0,0,73.44,50.43Z" stroke="#fff" stroke-width="4" fill="none"/>
</svg>
