<svg xmlns="http://www.w3.org/2000/svg" viewBox="0 0 96 96">
  <title>gif</title>
  <path d="M72.22,35.78v5.55H62.28V45h6.63v5.55H62.28V58h-5V35.78Zm-33.14,0a3.53,3.53,0,0,1,3.31,3.69v1.85H30.79v11.1h6.63V46.88h5v7.41A3.53,3.53,0,0,1,39.08,58H29.14a3.52,3.52,0,0,1-3.31-3.69V39.49a3.54,3.54,0,0,1,3.31-3.7Zm13.25,0V58h-5V35.79ZM22.92,14.12a9.92,9.92,0,0,0-9.84,10V71.92a9.92,9.92,0,0,0,9.84,10H74.7a9.92,9.92,0,0,0,9.85-10V24.08a9.92,9.92,0,0,0-9.85-10Z" fill="#fff"/>
  <rect x="1.17" y="0.36" width="95.28" height="95.28" fill="none"/>
</svg>
