<svg xmlns="http://www.w3.org/2000/svg" viewBox="0 0 96 96">
  <title>gif</title>
  <path d="M69.54,37.18v4.91h-8.8v3.28h5.87v4.91H60.74v6.55H56.33V37.18Zm-29.34,0a3.13,3.13,0,0,1,2.93,3.26v1.64H32.86v9.83h5.86V47h4.41v6.56a3.13,3.13,0,0,1-2.93,3.27H31.4a3.12,3.12,0,0,1-2.94-3.27V40.46a3.13,3.13,0,0,1,2.94-3.27Zm11.73,0V56.84H47.52V37.19ZM25.89,18a8.78,8.78,0,0,0-8.71,8.82V69.18A8.78,8.78,0,0,0,25.89,78H71.74a8.78,8.78,0,0,0,8.71-8.82V26.82A8.78,8.78,0,0,0,71.74,18Z" fill="#fff"/>
  <rect x="1.17" y="0.36" width="95.28" height="95.28" fill="none"/>
</svg>
