<svg xmlns="http://www.w3.org/2000/svg" viewBox="0 0 96 96">
  <title>junk</title>
  <path d="M24.64,20a3.23,3.23,0,0,0,0,6.45H71.36a3.23,3.23,0,0,0,0-6.45ZM56.2,42.74a2.85,2.85,0,0,1,2,.85,2.9,2.9,0,0,1,0,4.1L52.1,53.84,58.25,60a2.9,2.9,0,0,1,0,4.1,2.85,2.85,0,0,1-2,.85,2.88,2.88,0,0,1-2.05-.85L48,57.94l-6.15,6.15a2.88,2.88,0,0,1-2.05.85,2.85,2.85,0,0,1-2-.85,2.9,2.9,0,0,1,0-4.1l6.15-6.15-6.15-6.15a2.9,2.9,0,0,1,0-4.1,2.85,2.85,0,0,1,2-.85,2.88,2.88,0,0,1,2.05.85L48,49.74l6.15-6.15a2.88,2.88,0,0,1,2.05-.85Zm-27-13.07A5.37,5.37,0,0,0,23.83,35V72.63A5.36,5.36,0,0,0,29.2,78H66.8a5.38,5.38,0,0,0,5.37-5.37V35a5.39,5.39,0,0,0-5.37-5.37Z" fill="#fff"/>
  <rect width="96" height="96" fill="none"/>
</svg>
