<svg xmlns="http://www.w3.org/2000/svg" viewBox="0 0 96 96">
  <title>link</title>
  <path d="M64.89,12a19.05,19.05,0,0,0-13.51,5.6L41.14,27.84a24.37,24.37,0,0,1,3.61-.27,23.72,23.72,0,0,1,8.58,1.59l4.8-4.81A9.56,9.56,0,1,1,71.64,37.87L58.13,51.38a9.47,9.47,0,0,1-15.87-4.06,4.9,4.9,0,0,0-1,.68L35,54.28a19,19,0,0,0,29.93,3.85L78.4,44.62A19.11,19.11,0,0,0,64.89,12ZM44.62,32.27a19.05,19.05,0,0,0-13.51,5.6L17.6,51.38a19.11,19.11,0,1,0,27,27L54.86,68.16a24.4,24.4,0,0,1-3.62.27,23.66,23.66,0,0,1-8.57-1.59l-4.8,4.81A9.56,9.56,0,0,1,24.35,58.13L37.87,44.62a9.48,9.48,0,0,1,15.87,4.05,4.22,4.22,0,0,0,1-.67L61,41.72a18.61,18.61,0,0,0-2.9-3.85,19.05,19.05,0,0,0-13.51-5.6Z" fill="#fff"/>
</svg>
