<svg xmlns="http://www.w3.org/2000/svg" viewBox="0 0 96 96">
  <title>menu-packages</title>
  <g>
    <path d="M60.91,56a2.64,2.64,0,1,0,2.73,2.64A2.68,2.68,0,0,0,60.91,56Z" fill="#fff"/>
    <path d="M39.09,56a2.64,2.64,0,1,0,2.73,2.64A2.68,2.68,0,0,0,39.09,56Z" fill="#fff"/>
    <polygon points="58.09 44.12 58.09 48.91 66.84 48.91 63.28 44.12 58.09 44.12" fill="#fff"/>
    <path d="M48,8A40,40,0,1,0,88,48,40,40,0,0,0,48,8ZM70,58.72H66.36a5.46,5.46,0,0,1-10.91,0H44.55a5.46,5.46,0,0,1-10.91,0H30V39.33A3.44,3.44,0,0,1,33.64,36H58.09v5.76h6.46L70,48.91Z" fill="#fff"/>
  </g>
  <rect width="96" height="96" fill="none"/>
</svg>
