<svg xmlns="http://www.w3.org/2000/svg" viewBox="0 0 96 96">
  <title>menu-entertainment</title>
  <g>
    <path d="M48,8A40,40,0,1,0,88,48,40,40,0,0,0,48,8ZM66,44.5a3.5,3.5,0,1,0,0,7v7A3.56,3.56,0,0,1,62.4,62H33.6A3.56,3.56,0,0,1,30,58.5v-7a3.5,3.5,0,1,0,0-7v-7A3.55,3.55,0,0,1,33.6,34H62.4A3.56,3.56,0,0,1,66,37.5Z" fill="#fff"/>
    <polygon points="53.89 56.38 48.01 52.62 42.13 56.38 43.9 49.64 38.5 45.24 45.46 44.83 48.01 38.38 50.54 44.85 57.5 45.26 52.1 49.66 53.89 56.38" fill="#fff"/>
  </g>
</svg>
