<svg xmlns="http://www.w3.org/2000/svg" viewBox="0 0 96 96">
  <title>menu-finance</title>
  <path d="M48,8A40,40,0,1,0,88,48,40,40,0,0,0,48,8Zm3.25,55.59v5.77H44.81V63.55c-4.12-.91-7.64-3.65-7.89-8.52h4.72c.23,2.62,2,4.67,6.39,4.67,4.74,0,5.79-2.45,5.79-4,0-2.07-1.07-4-6.43-5.36-6-1.49-10.09-4-10.09-9.19,0-4.29,3.35-7.09,7.51-8V27.36h6.44v5.85a8.77,8.77,0,0,1,6.88,8.47H53.39C53.26,38.9,51.85,37,48,37c-3.62,0-5.79,1.69-5.79,4.12,0,2.11,1.56,3.47,6.43,4.78s10.09,3.47,10.09,9.79C58.76,60.26,55.43,62.77,51.25,63.59Z" fill="#fff"/>
  <rect width="96" height="96" fill="none"/>
</svg>
