<svg xmlns="http://www.w3.org/2000/svg" viewBox="0 0 96 96">
  <title>no-network</title>
  <path d="M72.1,46a4.23,4.23,0,0,0,5.35-6.55,46.44,46.44,0,0,0-37.54-9.76l7.75,7.75A38,38,0,0,1,72.1,46Zm-6.79,5.48a27.57,27.57,0,0,0-7.54-3.89l8.82,8.82A4.08,4.08,0,0,0,65.31,51.46ZM53.82,64.2a12.84,12.84,0,0,0-11.7,0A3,3,0,0,0,41.43,69l4.4,4.4a3,3,0,0,0,4.22,0l4.4-4.4A3,3,0,0,0,53.82,64.2ZM71,69.2,24.41,22.64a3,3,0,0,0-4.22,4.22l7,7a44.92,44.92,0,0,0-8.64,5.54,4.24,4.24,0,0,0-.3,6.28,4.13,4.13,0,0,0,5.59.3,37.81,37.81,0,0,1,9.72-5.77l6.68,6.67a28.77,28.77,0,0,0-9.55,4.52,4.17,4.17,0,0,0-.39,6.31l0,0a4.24,4.24,0,0,0,5.48.39A21.3,21.3,0,0,1,47.69,54.3l19,19.06a3,3,0,0,0,4.22,0A2.9,2.9,0,0,0,71,69.2Z" fill="#fff"/>
</svg>
