<svg xmlns="http://www.w3.org/2000/svg" viewBox="0 0 96 96">
  <title>not-junk</title>
  <g>
    <path d="M66.8,29.67H29.2A5.37,5.37,0,0,0,23.83,35V72.63A5.36,5.36,0,0,0,29.2,78H66.8a5.38,5.38,0,0,0,5.37-5.37V35A5.39,5.39,0,0,0,66.8,29.67ZM43,64.86l-8.29-8.29a2.5,2.5,0,0,1,0-3.56h0a2.51,2.51,0,0,1,3.55,0L43,57.73,57.77,42.92a2.53,2.53,0,0,1,3.57,0h0a2.52,2.52,0,0,1,0,3.56Z" fill="#fff"/>
    <path d="M71.36,20H24.74a3.3,3.3,0,0,0-3.25,2.54,3.23,3.23,0,0,0,3.15,3.91H71.26a3.29,3.29,0,0,0,3.25-2.54A3.23,3.23,0,0,0,71.36,20Z" fill="#fff"/>
  </g>
</svg>
