<svg xmlns="http://www.w3.org/2000/svg" viewBox="0 0 96 96">
  <title>num-list</title>
  <path d="M34.74,21.47a3.79,3.79,0,0,0,0,7.58H80.21a3.79,3.79,0,1,0,0-7.58ZM13.89,17.68a1.9,1.9,0,0,0,0,3.79h1.9V31a1.9,1.9,0,0,0,3.79,0V19.58a1.88,1.88,0,0,0-1.9-1.9ZM34.74,44.21a3.79,3.79,0,0,0,0,7.58H80.21a3.79,3.79,0,1,0,0-7.58ZM13.89,40.42a1.9,1.9,0,0,0,0,3.79h4.93l-6.37,7.43A1.85,1.85,0,0,0,12,52.85v.83a1.87,1.87,0,0,0,1.89,1.9h7.58a1.9,1.9,0,1,0,0-3.79H16.55l6.36-7.43a1.81,1.81,0,0,0,.46-1.21v-.83a1.88,1.88,0,0,0-1.9-1.9ZM34.74,67a3.79,3.79,0,0,0,0,7.58H80.21a3.79,3.79,0,1,0,0-7.58ZM13.89,63.16a1.9,1.9,0,0,0,0,3.79h5.69v1.89h-1.9a1.9,1.9,0,0,0,0,3.79h1.9v1.9H13.89a1.9,1.9,0,0,0,0,3.79h7.58a1.89,1.89,0,0,0,1.9-1.9V65.05a1.88,1.88,0,0,0-1.9-1.89Z" fill="#fff"/>
</svg>
