<svg xmlns="http://www.w3.org/2000/svg" viewBox="0 0 96 96">
  <title>other-mail</title>
  <rect width="96" height="96" fill="none"/>
  <g>
    <path d="M19.78,38.82a3.89,3.89,0,0,0-7.78,0V71.44a6.18,6.18,0,0,0,6.06,6.27h44.5a3.89,3.89,0,0,0,3.88-3.89v-.39a3.89,3.89,0,0,0-3.88-3.89H19.78Z" fill="#fff" fill-rule="evenodd"/>
    <path d="M77.56,17.6H34A5.43,5.43,0,0,0,28.56,23V55.71A5.43,5.43,0,0,0,34,61.16H77.56A5.44,5.44,0,0,0,83,55.71V23A5.43,5.43,0,0,0,77.56,17.6Zm0,10.89L55.78,42.06,34,28.49V23L55.78,36.61,77.56,23Z" fill="#fff" fill-rule="evenodd"/>
  </g>
</svg>
