<svg xmlns="http://www.w3.org/2000/svg" viewBox="0 0 96 96">
  <title>outbox</title>
  <rect width="96" height="96" fill="none"/>
  <g>
    <path d="M38.89,25.1l5.9-5.9V50.81a3.21,3.21,0,0,0,6.42,0V19.2l5.9,5.9a3.22,3.22,0,1,0,4.56-4.55L50.28,9.15a3.24,3.24,0,0,0-4.56,0L34.33,20.55a3.22,3.22,0,1,0,4.56,4.55Z" fill="#fff"/>
    <path d="M70.56,35H58.21v6.44h9.12a3.23,3.23,0,0,1,3.23,3.23v17H60.47a3.36,3.36,0,0,0-3.16,2.57,9.66,9.66,0,0,1-18.62,0,3.36,3.36,0,0,0-3.16-2.57H25.44v-17a3.23,3.23,0,0,1,3.23-3.23h9.12V35H25.41A6.37,6.37,0,0,0,19,41.44l0,33.12A6.42,6.42,0,0,0,25.41,81H70.56A6.46,6.46,0,0,0,77,74.56V41.44A6.44,6.44,0,0,0,70.56,35Z" fill="#fff"/>
  </g>
</svg>
