<svg xmlns="http://www.w3.org/2000/svg" viewBox="0 0 96 96">
  <title>outbox</title>
  <path d="M67.33,25.44a3.23,3.23,0,0,1,3.23,3.23v29H60.47a3.36,3.36,0,0,0-3.16,2.57,9.66,9.66,0,0,1-18.62,0,3.36,3.36,0,0,0-3.16-2.57H25.44v-29a3.23,3.23,0,0,1,3.23-3.23ZM25.41,19A6.37,6.37,0,0,0,19,25.44l0,45.12A6.42,6.42,0,0,0,25.41,77H70.56A6.46,6.46,0,0,0,77,70.56V25.44A6.44,6.44,0,0,0,70.56,19Z" fill="#fff"/>
  <path d="M44.87,52.14a1.38,1.38,0,0,1-1.32-1.43v-7.5H39.93A1.45,1.45,0,0,1,39,40.77l8.43-8.21a1.25,1.25,0,0,1,1.87,0L57,40.77a1.45,1.45,0,0,1-.93,2.44H52.66v7.5a1.39,1.39,0,0,1-1.33,1.43Z" fill="#fff"/>
  <rect width="96" height="96" fill="none"/>
</svg>
