<svg xmlns="http://www.w3.org/2000/svg" viewBox="0 0 96 96">
  <title>pop-in</title>
  <path d="M67.33,70.56H28.67a3.23,3.23,0,0,1-3.23-3.23V28.67a3.23,3.23,0,0,1,3.23-3.23H44.78a3.22,3.22,0,0,0,0-6.44H25.44A6.44,6.44,0,0,0,19,25.44V70.56A6.46,6.46,0,0,0,25.44,77H70.56A6.46,6.46,0,0,0,77,70.56V51.22a3.22,3.22,0,0,0-6.44,0V67.33A3.23,3.23,0,0,1,67.33,70.56Z" fill="#fff"/>
  <path d="M58.21,57.13A3.23,3.23,0,0,0,55,53.9H46.64L76.06,24.49a3.22,3.22,0,0,0-4.55-4.55L42.1,49.36V41a3.23,3.23,0,1,0-6.45,0V57.13a3.23,3.23,0,0,0,3.22,3.22H55A3.23,3.23,0,0,0,58.21,57.13Z" fill="#fff"/>
  <rect width="96" height="96" fill="none"/>
</svg>
