<svg xmlns="http://www.w3.org/2000/svg" viewBox="0 0 96 96">
  <title>popover-food</title>
  <rect width="96" height="96" fill="none"/>
  <path d="M87.75,20H72.12V8a4,4,0,0,0-8,0V20H48.48a4,4,0,0,0-4,4.41L45,29.29C59.7,32.7,72.12,43.15,72.12,60.1l.09,32.06H79a6.65,6.65,0,0,0,6.53-5.89l6.17-61.83A4,4,0,0,0,87.75,20ZM60.1,84.15H8a4,4,0,0,0,0,8H60.1a4,4,0,1,0,0-8ZM8.41,60.1H59.7a4,4,0,0,0,4-4.64C61.07,42.51,47.56,36,34.06,36s-27,6.49-29.61,19.44A4,4,0,0,0,8.41,60.1Zm51.69,8H8a4,4,0,0,0,0,8H60.1a4,4,0,1,0,0-8Z" fill="#fff"/>
</svg>
