<svg xmlns="http://www.w3.org/2000/svg" viewBox="0 0 96 96">
  <title>popout</title>
  <path d="M69.33,72.89H26.67a3.57,3.57,0,0,1-3.56-3.56V26.67a3.57,3.57,0,0,1,3.56-3.56H44.44a3.56,3.56,0,1,0,0-7.11H23.11A7.11,7.11,0,0,0,16,23.11V72.89A7.13,7.13,0,0,0,23.11,80H72.89A7.13,7.13,0,0,0,80,72.89V51.56a3.56,3.56,0,1,0-7.11,0V69.33A3.57,3.57,0,0,1,69.33,72.89ZM55.11,19.56a3.57,3.57,0,0,0,3.56,3.55h9.21L35.41,55.57a3.55,3.55,0,0,0,5,5L72.89,28.12v9.21a3.56,3.56,0,1,0,7.11,0V19.56A3.57,3.57,0,0,0,76.44,16H58.67A3.57,3.57,0,0,0,55.11,19.56Z" fill="#fff"/>
  <rect width="96" height="96" fill="none"/>
</svg>
