<svg xmlns="http://www.w3.org/2000/svg" viewBox="0 0 96 96">
  <title>popover-activity</title>
  <rect width="96" height="96" fill="none"/>
  <path d="M54,22a8,8,0,1,0-8-8A8,8,0,0,0,54,22ZM41.36,70l2.28-10L52,68V88a4,4,0,0,0,8,0V65.44a8,8,0,0,0-2.48-5.8L51.64,54,54,42a29.28,29.28,0,0,0,17.44,9.64,4,4,0,0,0,1.16-7.92,19.46,19.46,0,0,1-13.8-9.32l-4-6.4A8.25,8.25,0,0,0,48,24c-1.2,0-2,.4-3.2.4L28.92,31.12A8,8,0,0,0,24,38.52V48a4,4,0,0,0,8,0V38.4l7.2-2.8L32.84,68,17.16,64.8a4,4,0,0,0-4.72,3.12v.16a4,4,0,0,0,3.12,4.72L32,76.08A8,8,0,0,0,41.36,70Z" fill="#fff"/>
</svg>
