<svg xmlns="http://www.w3.org/2000/svg" viewBox="0 0 96 96">
  <title>popover-animals</title>
  <rect width="96" height="96" fill="none"/>
  <path d="M0,0H96V96H0Z" fill="none"/>
  <circle cx="18" cy="38" r="10" fill="#fff"/>
  <circle cx="36" cy="22" r="10" fill="#fff"/>
  <circle cx="60" cy="22" r="10" fill="#fff"/>
  <circle cx="78" cy="38" r="10" fill="#fff"/>
  <path d="M69.36,59.44c-3.48-4.08-6.4-7.56-9.92-11.64a17,17,0,0,0-7-5.28,8.1,8.1,0,0,0-1.32-.36A20.13,20.13,0,0,0,48,42a16.78,16.78,0,0,0-3.16.2,8.1,8.1,0,0,0-1.32.36,17.23,17.23,0,0,0-7,5.28C33,51.92,30.12,55.4,26.6,59.48c-5.24,5.24-11.68,11-10.48,19.16,1.16,4.08,4.08,8.12,9.32,9.28,2.92.6,12.24-1.76,22.16-1.76h.72c9.92,0,19.24,2.32,22.16,1.76,5.24-1.16,8.16-5.24,9.32-9.28C81,70.48,74.6,64.68,69.36,59.44Z" fill="#fff"/>
</svg>
