<svg xmlns="http://www.w3.org/2000/svg" viewBox="0 0 96 96">
  <title>popout</title>
  <path d="M67.33,70.56H28.67a3.23,3.23,0,0,1-3.23-3.23V28.67a3.23,3.23,0,0,1,3.23-3.23H44.78a3.22,3.22,0,0,0,0-6.44H25.44A6.44,6.44,0,0,0,19,25.44V70.56A6.46,6.46,0,0,0,25.44,77H70.56A6.46,6.46,0,0,0,77,70.56V51.22a3.22,3.22,0,0,0-6.44,0V67.33A3.23,3.23,0,0,1,67.33,70.56ZM54.44,22.22a3.23,3.23,0,0,0,3.23,3.22H66L36.59,54.86a3.22,3.22,0,0,0,4.55,4.55L70.56,30v8.34a3.22,3.22,0,1,0,6.44,0V22.22A3.23,3.23,0,0,0,73.78,19H57.67A3.23,3.23,0,0,0,54.44,22.22Z" fill="#fff"/>
</svg>
