<svg xmlns="http://www.w3.org/2000/svg" viewBox="0 0 96 96">
  <title>popover-food</title>
  <rect width="96" height="96" fill="none"/>
  <path d="M83.33,23.15H69.43V12.46a3.56,3.56,0,0,0-7.12,0V23.15H48.42a3.6,3.6,0,0,0-3.57,3.91l.43,4.32c13.11,3,24.15,12.32,24.15,27.39l.08,28.5h6A5.93,5.93,0,0,0,81.37,82l5.48-55A3.54,3.54,0,0,0,83.33,23.15Zm-24.58,57H12.44a3.57,3.57,0,1,0,0,7.13H58.75a3.57,3.57,0,0,0,0-7.13Zm-46-21.37h45.6a3.53,3.53,0,0,0,3.53-4.13C59.6,43.13,47.6,37.36,35.59,37.36s-24,5.77-26.32,17.28A3.55,3.55,0,0,0,12.79,58.77Zm46,7.13H12.44a3.56,3.56,0,1,0,0,7.12H58.75a3.56,3.56,0,1,0,0-7.12Z" fill="#fff"/>
</svg>
