<svg xmlns="http://www.w3.org/2000/svg" width="500" height="500" viewBox="0 0 500 500"><title>preference-icon-general</title><path d="M47.25,184.46a116.08,116.08,0,0,0,10.37,24.62L45.11,224.85a12.94,12.94,0,0,0,1,17.16l21.55,21.55a12.89,12.89,0,0,0,17.15,1l15.68-12.41A114.24,114.24,0,0,0,126,263l2.35,20.17a12.92,12.92,0,0,0,12.82,11.43h30.48a12.92,12.92,0,0,0,12.82-11.43l2.25-19.46a115.15,115.15,0,0,0,27.42-11.08l15.16,12a12.94,12.94,0,0,0,17.16-1l21.55-21.55a12.91,12.91,0,0,0,1-17.16l-11.8-15a112.73,112.73,0,0,0,11.29-27l18.18-2.09a12.92,12.92,0,0,0,11.43-12.82V137.59a12.92,12.92,0,0,0-11.43-12.82l-17.93-2.09A113.11,113.11,0,0,0,257.94,96l11-13.94a13,13,0,0,0-1-17.16L246.5,43.43a12.89,12.89,0,0,0-17.16-1L215.81,53.18a113.74,113.74,0,0,0-28-11.75l-2.05-17.51a12.91,12.91,0,0,0-12.81-11.44H142.43a12.91,12.91,0,0,0-12.81,11.44l-2.05,17.51A113.22,113.22,0,0,0,98.83,53.59l-14-11.13a12.93,12.93,0,0,0-17.15,1L46.08,65a12.89,12.89,0,0,0-1,17.16L56.85,97A111.18,111.18,0,0,0,46.23,123.9l-18.79,2.15A12.91,12.91,0,0,0,16,138.86v30.49a12.91,12.91,0,0,0,11.44,12.81ZM157.7,102a50.4,50.4,0,1,1-50.4,50.39A50.47,50.47,0,0,1,157.7,102Z" fill="#39f"/><path d="M459.07,192,443,178.39a12.71,12.71,0,0,0-16.95.46l-8.89,8.32a91.56,91.56,0,0,0-23.69-7.66L391,167.25A12.85,12.85,0,0,0,377.37,157l-21,1.79a12.79,12.79,0,0,0-11.7,12.31l-.4,12.45a92.69,92.69,0,0,0-22.63,11.9l-10.62-7a12.75,12.75,0,0,0-16.8,2.4L280.66,207a12.73,12.73,0,0,0,.46,17l9.29,9.9a95.65,95.65,0,0,0-6.84,22.67l-13.28,2.71a12.84,12.84,0,0,0-10.21,13.58l1.79,21a12.78,12.78,0,0,0,12.31,11.69l14.34.46a94,94,0,0,0,10.17,19.41l-8,12.1a12.77,12.77,0,0,0,2.4,16.8l16.08,13.58a12.73,12.73,0,0,0,17-.46l10.52-9.85a92.4,92.4,0,0,0,21.6,7l2.91,14.4a12.84,12.84,0,0,0,13.58,10.22l21-1.79a12.78,12.78,0,0,0,11.69-12.31l.46-14.09a94.72,94.72,0,0,0,21.6-10.93l11.59,7.66a12.77,12.77,0,0,0,16.8-2.4l13.58-16.08a12.72,12.72,0,0,0-.46-17l-9.34-9.9A92,92,0,0,0,469,289.65l12.77-2.6A12.85,12.85,0,0,0,492,273.46l-1.79-21a12.79,12.79,0,0,0-12.3-11.7l-12.82-.4a92.75,92.75,0,0,0-10.67-21l7-10.52A12.68,12.68,0,0,0,459.07,192ZM380,313.29a41.25,41.25,0,1,1,37.63-44.57A41.25,41.25,0,0,1,380,313.29Z" fill="#5b83e2"/><path d="M120.68,369.77a12.76,12.76,0,0,0-11.44,12.56l-.15,12.92a12.73,12.73,0,0,0,11.13,12.82l9.5,1.22a73.65,73.65,0,0,0,6.74,16.5l-6.13,7.55a12.74,12.74,0,0,0,.77,17l9,9.24a12.75,12.75,0,0,0,17,1.17l7.61-5.87a74.62,74.62,0,0,0,17,7.41l1,9.8a12.76,12.76,0,0,0,12.56,11.44l12.92.15A12.73,12.73,0,0,0,221,472.51l1.17-9.29a77.36,77.36,0,0,0,18.39-7.15l7.14,5.77a12.74,12.74,0,0,0,17-.77l9.24-9A12.73,12.73,0,0,0,275,435.08l-5.46-7.1a74,74,0,0,0,7.76-17.87l8.48-.87a12.75,12.75,0,0,0,11.44-12.56l.15-12.92a12.74,12.74,0,0,0-11.13-12.82L278,369.87A77.46,77.46,0,0,0,271,352l5.16-6.33a12.73,12.73,0,0,0-.77-16.95l-9-9.25a12.75,12.75,0,0,0-17-1.17l-6.18,4.75A74.87,74.87,0,0,0,224.64,315l-.81-8a12.78,12.78,0,0,0-12.56-11.44l-12.92-.15a12.73,12.73,0,0,0-12.82,11.13l-1,8a76.88,76.88,0,0,0-19.25,7.86l-6.38-5.21a12.75,12.75,0,0,0-17,.77L132.63,327a12.75,12.75,0,0,0-1.18,16.95l5.47,7.05a74.46,74.46,0,0,0-7.3,17.87Zm83.39-14.6a33.6,33.6,0,1,1-34,33.19A33.63,33.63,0,0,1,204.07,355.17Z" fill="#94cff9"/></svg>