<svg xmlns="http://www.w3.org/2000/svg" width="500" height="500" viewBox="0 0 500 500"><title>preference-icon-shortcuts</title><rect x="59.25" y="65.25" width="381" height="381" rx="36.6" fill="#dde8fd"/><path d="M326.38,288H298.15V223.48h28.23A44.37,44.37,0,1,0,282,179.12v28.23H217.48V179.12a44.37,44.37,0,1,0-44.36,44.36h28.23V288H173.12a44.37,44.37,0,1,0,44.36,44.36V304.15H282v28.23A44.37,44.37,0,1,0,326.38,288Zm-28.23-108.9a28.24,28.24,0,1,1,28.23,28.23H298.15Zm-125,28.23a28.24,28.24,0,1,1,28.23-28.23v28.23Zm28.23,125a28.24,28.24,0,1,1-28.23-28.23h28.23ZM217.48,288V223.48H282V288Zm108.9,72.6a28.27,28.27,0,0,1-28.23-28.24V304.15h28.23a28.24,28.24,0,1,1,0,56.47Z" fill="#39f"/></svg>