<svg xmlns="http://www.w3.org/2000/svg" width="500" height="500" viewBox="0 0 500 500"><title>preference-icon-templates</title><path d="M431.17,38H113.24A23.42,23.42,0,0,0,89.89,61.35v58.84H259.38a26.23,26.23,0,0,1,26.2,26.21V354.91a26.23,26.23,0,0,1-26.2,26.21H89.89V437a23.41,23.41,0,0,0,23.35,23.34H431.17A23.41,23.41,0,0,0,454.52,437V61.35A23.42,23.42,0,0,0,431.17,38Z" fill="#f2f2f2"/><rect x="136.72" y="87.3" width="270.96" height="25.65" rx="12.82" fill="#39f"/><rect x="136.72" y="388.37" width="270.96" height="25.65" rx="12.82" fill="#39f"/><rect x="48.47" y="144" width="213.31" height="213.31" rx="12.13" fill="#dde8fd"/><path d="M144.84,309.18V215.83H112.23V196.36h88.9v19.47H168.45v93.35Z" fill="#39f"/><path d="M394.86,187.65H285.58V213.3H394.86a12.83,12.83,0,0,0,0-25.65Z" fill="#39f"/><path d="M394.86,288H285.58v25.65H394.86a12.83,12.83,0,0,0,0-25.65Z" fill="#39f"/></svg>