<svg xmlns="http://www.w3.org/2000/svg" width="500" height="500" viewBox="0 0 500 500"><title>preference-icon-accounts</title><path d="M450,429.54A17,17,0,0,1,445,442a18,18,0,0,1-11.66,4.16H66.92A19.94,19.94,0,0,1,55.26,442a17,17,0,0,1-5-12.49v-244H450v244Z" fill="#94cff9"/><path d="M450,185.53l-56.63,40.8L261,321.27a18.74,18.74,0,0,1-22.49,0L106.89,226.33l-56.63-40.8,56.63-40.81L230.14,68.44l9.16-6.66a18.77,18.77,0,0,1,22.49,0L271,68.44l59.13,30.48,29.15,20.82,34.14,25Z" fill="#5b83e2"/><path d="M375.94,57.15H123.25A16.85,16.85,0,0,0,106.44,74V227.48l131.18,94.65a18.75,18.75,0,0,0,22.48,0l132.42-94.94.22-.16V74A16.85,16.85,0,0,0,375.94,57.15Z" fill="#f2f2f2"/><path d="M321,175.82c0,30.1-16.9,51.88-40.39,51.88-11.41,0-19.73-5.06-20.24-12.61,0-.6.08-1.11.08-1.54l-1.54.25A23,23,0,0,1,238,226c-15.35,0-25.65-12.09-25.65-30.18,0-23.33,14.93-41.34,34.14-41.34,10,0,18.26,5.49,20.15,13.72l1.54.09,2.23-10.72h17.67l-9.78,45.28a18.07,18.07,0,0,0-.43,3.69c0,4.2,2.57,6.68,6.86,6.68,11.32,0,20.67-16.72,20.67-36.78,0-26.76-20.24-44.6-50.68-44.6-35.33,0-62.52,27.62-62.52,63.46,0,31.82,22.9,52.74,57.8,52.66,5.57,0,11.92-.69,14-1.46l-2.92,14.15A79.46,79.46,0,0,1,246.39,262c-41.42,0-69.81-27-69.81-66.29,0-44.68,33.62-77.86,79.24-77.86C294.41,117.85,321,141.51,321,175.82ZM249.65,171c-10,0-17.92,10.55-17.92,24,0,9.35,4.88,15.18,12.6,15.18,10,0,18-10.63,18-24.18C262.34,176.84,257.45,171,249.65,171Z" fill="#39f"/></svg>