<svg xmlns="http://www.w3.org/2000/svg" width="500" height="500" viewBox="0 0 500 500"><title>preference-icon-mail-rules</title><path d="M116.43,78H389.58L444,272.26H55.89Z" fill="#94cff9"/><path d="M128.56,102.28H377.45l42.29,182.11S414.89,345,406.4,345H91.07c-7.28,0-10.92-60.64-10.92-60.64Z" fill="#5b83e2"/><path d="M308.91,241H192a7.52,7.52,0,0,1-7.5-7.5L174,144.08a7.52,7.52,0,0,1,7.5-7.5H318.53a7.51,7.51,0,0,1,7.49,7.5l-9.61,89.41A7.52,7.52,0,0,1,308.91,241Z" fill="#f2f2f2" stroke="#5b83e2" stroke-miterlimit="10" stroke-width="10.49"/><path d="M323.36,309.29H174a9.68,9.68,0,0,1-9.65-9.65l-12.23-115.1a9.68,9.68,0,0,1,9.65-9.65H338.22a9.68,9.68,0,0,1,9.65,9.65L333,299.64A9.68,9.68,0,0,1,323.36,309.29Z" fill="#f2f2f2" stroke="#5b83e2" stroke-miterlimit="10" stroke-width="10.49"/><path d="M339.13,402.45,156.49,400.7a12.27,12.27,0,0,1-12.24-12.23L125.9,242.53a12.28,12.28,0,0,1,12.24-12.24H361.85a12.28,12.28,0,0,1,12.24,12.24L351.37,390.22A12.27,12.27,0,0,1,339.13,402.45Z" fill="#f2f2f2" stroke="#5b83e2" stroke-miterlimit="10" stroke-width="10.49"/><path d="M296.36,272.26v24.26a24.33,24.33,0,0,1-24.25,24.26H231.55a24.34,24.34,0,0,1-24.26-24.26V272.26H55.89V417.8a24.34,24.34,0,0,0,24.26,24.26H419.74A24.34,24.34,0,0,0,444,417.8V272.26Z" fill="#94cff9"/></svg>