<svg xmlns="http://www.w3.org/2000/svg" width="500" height="500" viewBox="0 0 500 500"><title>preference-icon-folders</title><path d="M388.72,122.33H218L175.35,79.66H68.67A42.81,42.81,0,0,0,26,122.33v256A42.81,42.81,0,0,0,68.67,421H399.38c18.13,0,32-13.87,32-32V165A42.81,42.81,0,0,0,388.72,122.33Z" fill="#39f"/><rect x="68.6" y="152.76" width="324.39" height="220.63" rx="32.7" fill="#f2f2f2"/><path d="M433.51,186.34H146.56c-20.3,0-38.42,14.91-41.63,35.21L68.67,421H406.84c20.3,0,38.43-14.91,41.63-35.21l26.67-149.35C480.48,210.88,460.18,186.34,433.51,186.34Z" fill="#94cff9"/></svg>