<svg xmlns="http://www.w3.org/2000/svg" width="500" height="500" viewBox="0 0 500 500"><title>preference-icon-signatures</title><path d="M24.63,481.15a9.46,9.46,0,0,1-7.45-15.26c8.7-11.15,16.77-21.38,24.58-31.27l7.53-9.53A128.11,128.11,0,0,1,41.62,414c-13.18-21.29-22.09-48.45-23.27-70.87-3.21-61,31.26-102.69,41.9-114,17-18.12,47.66-30.87,69.45-20.85,12.56,5.78,26.63,20.85,22.4,59.83-6.45,59.29-32.11,97.3-78,156,7.28,6.42,15,10.16,22.56,9.83,15.6-.68,37.84-9,59.09-27.11a60.17,60.17,0,0,1-11.31-26.39c-7-40.41,14.36-69.35,21.39-78.86,10.26-13.88,35.81-28.81,52.49-20.61,8.6,4.22,17.15,15.24,9.06,43.76-10.44,36.81-27.28,62.82-43.08,80.51a23,23,0,0,0,2.34.63c10.78,2.27,21.47-3.6,30.09-16.54,13.62-20.42,18.11-26.7,21.08-30.85,2.42-3.39,3.76-5.26,8.73-13.06,3.28-5.17,12.21-16.77,24.07-12.92,5.83,1.9,15.38,8.88,13.79,34.32-.34,5.42-1.2,11.08-2,16.07-.11.73-.23,1.53-.36,2.35,3.41-3.13,8.05-7.72,14.32-14.43,19.43-20.82,36.19-33.48,49.82-37.62,13.09-4,19.86.8,21.62,2.37a9.45,9.45,0,0,1-11.38,15c-3.8-.81-18.66,3.57-46.25,33.13-9.17,9.83-16.22,16.62-21.55,20.75-3.39,2.63-11.34,8.79-19.24,5-9.43-4.57-7.69-16.06-5.66-29.36.74-4.83,1.5-9.83,1.78-14.41a42.4,42.4,0,0,0-.84-13.14,26.64,26.64,0,0,0-2.22,3.06c-5.25,8.23-6.69,10.25-9.31,13.91-2.9,4.05-7.28,10.18-20.72,30.34-13,19.52-31.14,28.46-49.71,24.54A43.19,43.19,0,0,1,170,419.45l-1.51,1.32c-22.19,19.09-48.74,31.06-71,32-12,.52-24-4.26-35.1-13.78l-5.77,7.31c-7.79,9.87-15.85,20.07-24.51,31.18A9.41,9.41,0,0,1,24.63,481.15Zm87.91-257.59c-12.88,0-29,8.35-38.52,18.46-19.26,20.5-39,57.57-36.81,100.09,1.19,22.47,11,48.83,24.2,67.53C105,353.76,127.5,319.53,133.32,266c3-27.81-4.6-37.44-11.52-40.63A22.1,22.1,0,0,0,112.54,223.56Zm94.92,73.88c-6.74,0-20.22,6.92-26.46,15.36-5.84,7.9-23.61,31.95-18,64.4a42,42,0,0,0,6.44,16.28c16.19-17.84,30.7-42.11,39.72-73.92,4.48-15.78,2-21.05.79-21.64A5.69,5.69,0,0,0,207.46,297.44Zm59.4,53.06Zm88.4-.83h0Z" fill="#39f"/><path d="M469.07,53.74l-25.68-5.51h0l-3.67-.78a7.5,7.5,0,0,0-8.91,5.76L406,169.14,379.9,290.78a5.58,5.58,0,0,0-.15,1.15,7,7,0,0,0,.68,3.39l10.87,22.82a7.1,7.1,0,0,0,11,2.36l19.27-16.37a7.06,7.06,0,0,0,2.35-3.92L450,178.57h0L474.83,62.64A7.49,7.49,0,0,0,469.07,53.74Z" fill="#94cff9"/><path d="M465.92,25.43l-9.53-2h0l-2.21-.47a7.06,7.06,0,0,0-1.51-.17,7.5,7.5,0,0,0-7.2,5.19c-.08.24-.14.49-.2.74l-4.09,19.08,26.42,5.66,4.09-19.08A7.5,7.5,0,0,0,465.92,25.43Z" fill="#39f"/><polygon points="471.53 78.05 438.32 70.94 427.5 68.62 422.16 93.56 466.18 103 466.18 103 466.19 103 471.53 78.05" fill="#39f"/><path d="M432.3,153.68A5.63,5.63,0,0,1,428,147l16-74.84a5.63,5.63,0,1,1,11,2.35l-16,74.84a5.63,5.63,0,0,1-5.49,4.45A6,6,0,0,1,432.3,153.68Z" fill="#5b83e2"/></svg>