<svg xmlns="http://www.w3.org/2000/svg" viewBox="0 0 96 96">
  <title>quick-reply</title>
  <rect x="-0.43" y="0.36" width="95.18" height="95.18" fill="none"/>
  <path d="M13.21,25.32a3.79,3.79,0,0,0-3.77,3.77v49A7.58,7.58,0,0,0,17,85.67H66a3.78,3.78,0,0,0,0-7.55H20.76A3.77,3.77,0,0,1,17,74.35V29.09A3.79,3.79,0,0,0,13.21,25.32ZM77.33,10.23H32.07a7.57,7.57,0,0,0-7.54,7.55V63a7.56,7.56,0,0,0,7.54,7.54H77.33A7.56,7.56,0,0,0,84.87,63V17.78A7.57,7.57,0,0,0,77.33,10.23Zm-7.54,34H39.61a3.77,3.77,0,1,1,0-7.54H69.79a3.77,3.77,0,1,1,0,7.54ZM54.7,59.27H39.61a3.78,3.78,0,0,1,0-7.55H54.7a3.78,3.78,0,0,1,0,7.55ZM69.79,29.09H39.61a3.77,3.77,0,1,1,0-7.54H69.79a3.77,3.77,0,0,1,0,7.54Z" fill="#fff"/>
</svg>
