<svg xmlns="http://www.w3.org/2000/svg" viewBox="0 0 96 96">
  <title>quick-reply</title>
  <rect x="-0.43" y="0.36" width="95.18" height="95.18" fill="none"/>
  <path d="M18.36,28.75a3.21,3.21,0,0,0-3.2,3.2v41.6a6.42,6.42,0,0,0,6.4,6.4h41.6a3.2,3.2,0,0,0,0-6.4H24.76a3.21,3.21,0,0,1-3.2-3.2V32A3.21,3.21,0,0,0,18.36,28.75ZM72.76,16H34.36a6.42,6.42,0,0,0-6.4,6.4v38.4a6.42,6.42,0,0,0,6.4,6.4h38.4a6.42,6.42,0,0,0,6.4-6.4V22.35A6.42,6.42,0,0,0,72.76,16Zm-6.4,28.8H40.76a3.2,3.2,0,1,1,0-6.4h25.6a3.2,3.2,0,1,1,0,6.4Zm-12.8,12.8H40.76a3.2,3.2,0,1,1,0-6.4h12.8a3.2,3.2,0,0,1,0,6.4ZM66.36,32H40.76a3.2,3.2,0,0,1,0-6.4h25.6a3.2,3.2,0,1,1,0,6.4Z" fill="#fff"/>
</svg>
