<svg xmlns="http://www.w3.org/2000/svg" viewBox="0 0 96 96">
  <title>quote</title>
  <g>
    <path d="M37.23,45.31H27.81a4,4,0,0,1-4-4V39.92A10.77,10.77,0,0,1,34.54,29.15h2.69a2.73,2.73,0,0,0,2.69-2.69V21.08a2.73,2.73,0,0,0-2.69-2.7H34.54a20.9,20.9,0,0,0-8.35,1.71A21.3,21.3,0,0,0,14.7,31.57,21.1,21.1,0,0,0,13,39.92V69.54a8,8,0,0,0,8.08,8.07H37.23a8,8,0,0,0,8.08-8.07V53.38a8,8,0,0,0-8.08-8.07Z" fill="#fff"/>
    <path d="M80.65,47.66a7.79,7.79,0,0,0-5.73-2.35H65.5a4,4,0,0,1-4-4V39.92A10.79,10.79,0,0,1,72.23,29.15h2.69a2.73,2.73,0,0,0,2.7-2.69V21.08a2.73,2.73,0,0,0-2.7-2.7H72.23a20.9,20.9,0,0,0-8.35,1.71A21.24,21.24,0,0,0,52.4,31.57a20.93,20.93,0,0,0-1.71,8.35V69.54a8,8,0,0,0,8.08,8.07H74.92A8,8,0,0,0,83,69.54V53.38A7.79,7.79,0,0,0,80.65,47.66Z" fill="#fff"/>
  </g>
</svg>
