<svg xmlns="http://www.w3.org/2000/svg" viewBox="0 0 96 96">
  <title>readReceipts</title>
  <g>
    <path d="M74.57,33.34c-.16.27-6.79,7.17-10,10.3a4,4,0,0,0-1.42,3.49A15,15,0,0,1,46.31,62.71a1.36,1.36,0,0,0-1.25.43C42.64,65.6,37.45,70.8,37.27,71a1.85,1.85,0,0,0,.32.18,32.7,32.7,0,0,0,9.34,1.76,36.29,36.29,0,0,0,19-5c8.23-4.59,15-10.9,20.94-18.11.56-.68,1.09-1.4,1.64-2.1A84.42,84.42,0,0,0,74.57,33.34Z" fill="#fff"/>
    <path d="M86.24,9a4,4,0,0,0-5.65,0L63.42,26.23l-.22-.1A35,35,0,0,0,49,22.43c-6.82-.2-13.07,1.82-18.95,5.1C22.24,31.91,15.75,37.89,10,44.7c-.8.93-1.58,1.88-2.36,2.82v.32l2.16,2.58A80.61,80.61,0,0,0,25,64.64a.94.94,0,0,0,.15.06L9.88,80.07a4,4,0,1,0,5.67,5.64L86.26,14.62A4,4,0,0,0,86.24,9ZM37,37.29a15,15,0,0,1,18.27-2.86L34.83,55A15,15,0,0,1,37,37.29Z" fill="#fff"/>
  </g>
</svg>
