<svg xmlns="http://www.w3.org/2000/svg" viewBox="0 0 96 96">
  <title>sent</title>
  <g>
    <path d="M73.6,21.6l-53,27.81c-2.18,1.15-2.09,2.82.2,3.73l6.77,2.68a8.69,8.69,0,0,0,7.69-1.11L64.63,31.52c1.93-1.52,2.14-1.3.46.5L41.84,56.91c-1.68,1.79-1.18,4,1.11,4.88l.79.32c2.29.88,6,2.37,8.32,3.3l7.51,3.06c2.28.93,4.15,1.7,4.15,1.71s0,.06,0,.06.55-1.93,1.2-4.31L76.39,23.84C77,21.46,75.78,20.46,73.6,21.6Z" fill="#fff"/>
    <path d="M43,65.12l-6.1-2.63c-2.28-.93-3.37.16-2.43,2.44,0,0,4.83,11.62,4.69,12s4.63-6.9,4.63-6.9C45.13,68,45.26,66.06,43,65.12Z" fill="#fff"/>
  </g>
</svg>
