<svg xmlns="http://www.w3.org/2000/svg" viewBox="0 0 96 96">
  <title>sent</title>
  <g>
    <path d="M79.1,16,15.23,49.5C14,50.12,10.66,52,10.66,52s3.3,1.44,4.81,2l8.15,3.22a10.46,10.46,0,0,0,9.27-1.33L68.3,28c2.33-1.83,2.58-1.56.55.61l-28,30c-2,2.16-1.43,4.8,1.33,5.88l1,.37c2.76,1.07,7.27,2.87,10,4l9,3.68c2.75,1.12,5,2,5,2.06s0,.07,0,.07.66-2.33,1.44-5.19L82.46,18.71C83.24,15.85,81.73,14.63,79.1,16Z" fill="#fff"/>
    <path d="M45.92,70.5l-12-5.25c-2.74-1.13-4.06.19-2.92,2.93l6.62,15.46,8.66-8.24C49,72.56,48.66,71.62,45.92,70.5Z" fill="#fff"/>
  </g>
  <rect width="96" height="96" fill="none"/>
</svg>
