<svg xmlns="http://www.w3.org/2000/svg" viewBox="0 0 96 96">
  <title>sent</title>
  <g>
    <path d="M78.2,16.91,16.11,49.47c-1.16.61-4.45,2.39-4.45,2.39s3.21,1.4,4.68,2L24.26,57a10.2,10.2,0,0,0,9-1.29L67.7,28.53c2.26-1.79,2.51-1.52.54.58L41,58.25c-2,2.1-1.39,4.67,1.29,5.72l.93.36c2.68,1,7.07,2.79,9.74,3.88l8.79,3.58c2.67,1.08,4.86,2,4.86,2s0,.07,0,.07.64-2.27,1.4-5L81.47,19.54C82.22,16.75,80.76,15.58,78.2,16.91Z" fill="#fff"/>
    <path d="M42.39,68.06l-7.17-3.28c-2.67-1.09-3.95.19-2.84,2.86,0,0,5.65,13.61,5.49,14.09s5.42-8.08,5.42-8.08C44.87,71.24,45.06,69.15,42.39,68.06Z" fill="#fff"/>
  </g>
  <rect width="96" height="96" fill="none"/>
</svg>
