<svg xmlns="http://www.w3.org/2000/svg" viewBox="0 0 96 96">
  <title>signature</title>
  <rect x="-1.24" y="0.36" width="95.28" height="95.28" fill="none"/>
  <rect x="-1.24" y="0.36" width="95.28" height="95.28" fill="none"/>
  <path d="M12.17,59.91a3.26,3.26,0,0,1-.62-.06,3,3,0,0,1-2.3-3.52h0c3.61-17.14,14.87-33.13,26.23-37.1,4.51-1.6,8.74-1.06,11.91,1.52,5.41,4.38,1.31,11.91-2.66,19.11-2.85,5.17-6.35,11.52-3.87,13a.45.45,0,0,0,.46.08c2.5-.61,6.41-7.28,8.5-10.92.87-1.46,1.68-2.85,2.41-4A6.3,6.3,0,0,1,53.35,37l.18-.18c1.75-1.73,4.51-1.74,7,0,2.9,2,5,6,3.34,9.76a18.9,18.9,0,0,1-1.24,2.25,21.1,21.1,0,0,0-1.85,3.56,1.82,1.82,0,0,0,1.08.06c2.29-.57,5-5.1,6.73-8.1,2.15-3.63,3.7-6.26,6.18-6.89a4.05,4.05,0,0,1,3.13.48L78,38c2.12,1.41,7.35,8.48,5.62,14.26-.84,2.78-3.47,6.1-11.29,6.1a3,3,0,0,1,0-6c1.49,0,5-.18,5.56-1.8S77,45.85,75.76,44.1c-.65.92-1.42,2.24-2,3.24C71.21,51.63,68,57,63.27,58.17a8.15,8.15,0,0,1-6.34-1.12,1.66,1.66,0,0,1-.32-.22c-4-3.18-.79-8.36.9-11.14.34-.58.74-1.23.87-1.54a1.45,1.45,0,0,0-.16-1.25,3.37,3.37,0,0,0-1.16-1.27c-.58.87-1.33,2.15-2.11,3.49C51.55,51,47.69,57.54,42.76,58.77a6.45,6.45,0,0,1-5-.84c-7.29-4.46-2.25-13.61,1.72-21,2.13-3.88,5.68-10.37,4.13-11.63s-3.63-1.43-6.17-.53C27.09,28.48,17.78,44.67,15.06,57.57A3,3,0,0,1,12.17,59.91Z" fill="#fff"/>
  <path d="M14.22,69.74a4,4,0,1,0,0,7.94H81.78a4,4,0,0,0,0-7.94Z" fill="#fff"/>
</svg>
