<svg xmlns="http://www.w3.org/2000/svg" viewBox="0 0 96 96">
  <title>signature</title>
  <rect width="96" height="96" fill="none"/>
  <g>
    <path d="M11.9,59.75V48.57L48,12.43a2.24,2.24,0,0,1,3.22,0l8,8a2.25,2.25,0,0,1,0,3.21L23.08,59.75Z" fill="#fff"/>
    <path d="M19.13,83.37c-4.59-2.21-7.23-7.9-7.23-15.62h8c0,5.63,1.76,8,2.69,8.41.47.22,1.08,0,1.81-.54,1.48-1.18,4.29-5.71,6.55-9.35,5.13-8.25,8.22-13,12.14-13.69a5.27,5.27,0,0,1,4.21,1c2.5,1.87,3.34,5.32,4.41,9.69,2.07,8.47,3.83,12.51,8.14,12.51,1.27-.21,3.32-2.59,5.26-6-.54-.66-1.07-1.33-1.58-2-4.79-6.48-7.18-13.4-6.39-18.51C58,43.93,62,40.75,67.9,40.75a9.61,9.61,0,0,1,8.21,4.09,14.35,14.35,0,0,1,2.17,8.24,41.82,41.82,0,0,1-3.51,15.24,26.05,26.05,0,0,0,9.33,5.61l-2.4,7.63a33,33,0,0,1-10.76-6c-3.16,4.79-7,8.18-11,8.18-11.41,0-14.26-11.65-16-18.61-.22-.9-.48-2-.74-2.9-1.72,2.24-3.94,5.82-5.45,8.26-3.12,5-5.8,9.33-8.35,11.37A10.32,10.32,0,0,1,23,84.25,8.89,8.89,0,0,1,19.13,83.37ZM65,50.49c-.4,2.66,1.08,6.79,3.79,10.89A25.13,25.13,0,0,0,70.24,52c-.26-3.26-1.41-3.26-2.34-3.26C65.31,48.75,65.17,49.67,65,50.49Z" fill="#fff"/>
  </g>
</svg>
