<svg xmlns="http://www.w3.org/2000/svg" viewBox="0 0 96 96">
  <title>snooze</title>
  <g>
    <path d="M47.94,21.56a30,30,0,1,0,30,30A30,30,0,0,0,47.94,21.56ZM61.67,62.4a2.38,2.38,0,0,1-3.26.8L46.24,55.9A3.29,3.29,0,0,1,44.6,53V37.3A2.39,2.39,0,0,1,47,34.9h.2a2.39,2.39,0,0,1,2.41,2.4V52.4l11.23,6.66A2.41,2.41,0,0,1,61.67,62.4Z" fill="#fff"/>
    <path d="M79.56,24,69,15.23a3.45,3.45,0,0,0-4.85.45,3.48,3.48,0,0,0,.45,4.85l10.55,8.8A3.46,3.46,0,0,0,79.56,24Z" fill="#fff"/>
    <path d="M20.84,29.33l10.56-8.8A3.43,3.43,0,0,0,27,15.23L16.44,24A3.44,3.44,0,0,0,16,28.88,3.4,3.4,0,0,0,20.84,29.33Z" fill="#fff"/>
  </g>
  <rect width="96" height="96" fill="none"/>
</svg>
