<svg xmlns="http://www.w3.org/2000/svg" viewBox="0 0 96 96">
  <title>snooze</title>
  <path d="M59.62,57.53,49.4,51.46V37.72a2.17,2.17,0,0,0-2.18-2.18H47a2.17,2.17,0,0,0-2.18,2.18V52a3,3,0,0,0,1.49,2.6l11.07,6.65a2.18,2.18,0,1,0,2.21-3.76ZM75.73,26.47,66.39,18.7a3,3,0,0,0-3.89,4.67l9.31,7.77a3,3,0,0,0,3.92-4.67ZM23.92,31.14l9.31-7.77a3,3,0,0,0-3.85-4.67L20,26.47a3,3,0,0,0,3.88,4.67Zm24-7.74a27.3,27.3,0,1,0,27.3,27.3A27.31,27.31,0,0,0,47.88,23.4Zm0,48.53A21.23,21.23,0,1,1,69.12,50.7,21.26,21.26,0,0,1,47.88,71.93Z" fill="#fff"/>
  <rect width="96" height="96" fill="none"/>
</svg>
