<svg xmlns="http://www.w3.org/2000/svg" viewBox="0 0 96 96">
  <title>snooze</title>
  <path d="M13.25,13.36H82.52V82.64H13.25Z" fill="none"/>
  <path d="M59.05,57.07l-9.72-5.78V38.22a2.07,2.07,0,0,0-2.08-2.08h-.17A2.07,2.07,0,0,0,45,38.22V51.84a2.86,2.86,0,0,0,1.41,2.48L57,60.64a2.07,2.07,0,1,0,2.1-3.57ZM74.38,27.51l-8.89-7.39a2.89,2.89,0,1,0-3.69,4.44L70.66,32a2.9,2.9,0,0,0,3.72-4.44ZM25.08,32l8.86-7.39a2.88,2.88,0,0,0-3.66-4.44l-8.89,7.39A2.89,2.89,0,0,0,25.08,32Zm22.8-7.36a26,26,0,1,0,26,26A26,26,0,0,0,47.88,24.59Zm0,46.19A20.21,20.21,0,1,1,68.09,50.57,20.23,20.23,0,0,1,47.88,70.78Z" fill="#fff"/>
</svg>
