<svg xmlns="http://www.w3.org/2000/svg" viewBox="0 0 96 96">
  <title>snooze</title>
  <path d="M60.8,58.48,49.55,51.81V36.69a2.39,2.39,0,0,0-2.4-2.4H47a2.39,2.39,0,0,0-2.4,2.4V52.44a3.31,3.31,0,0,0,1.63,2.87l12.18,7.31a2.4,2.4,0,1,0,2.44-4.14ZM78.51,24.31,68.24,15.77A3.34,3.34,0,1,0,64,20.91l10.24,8.54a3.35,3.35,0,0,0,4.3-5.14Zm-57,5.14,10.24-8.54a3.33,3.33,0,0,0-4.24-5.14L17.25,24.31a3.35,3.35,0,0,0-.4,4.71A3.31,3.31,0,0,0,21.53,29.45Zm26.35-8.51a30,30,0,1,0,30,30A30,30,0,0,0,47.88,20.94Zm0,53.39A23.36,23.36,0,1,1,71.24,51,23.38,23.38,0,0,1,47.88,74.33Z" fill="#fff"/>
  <rect width="96" height="96" fill="none"/>
</svg>
