<svg xmlns="http://www.w3.org/2000/svg" viewBox="0 0 96 96">
  <title>snooze</title>
  <path d="M61.3,58.8,49.72,51.92V36.35a2.47,2.47,0,0,0-2.48-2.48H47a2.47,2.47,0,0,0-2.48,2.48V52.57a3.4,3.4,0,0,0,1.69,3l12.54,7.53A2.47,2.47,0,1,0,61.3,58.8ZM79.56,23.6,69,14.8a3.44,3.44,0,0,0-4.85.44,3.48,3.48,0,0,0,.45,4.85l10.55,8.8a3.45,3.45,0,0,0,4.44-5.29ZM20.84,28.89l10.56-8.8A3.43,3.43,0,0,0,27,14.8L16.44,23.6a3.44,3.44,0,0,0,4.4,5.29ZM48,20.12A30.94,30.94,0,1,0,78.94,51.06,30.95,30.95,0,0,0,48,20.12Zm0,55A24.06,24.06,0,1,1,72.06,51.06,24.08,24.08,0,0,1,48,75.12Z" fill="#fff"/>
  <rect width="96" height="96" fill="none"/>
</svg>
