<svg xmlns="http://www.w3.org/2000/svg" viewBox="0 0 96 96">
  <title>status-bar-icon</title>
  <rect width="96" height="96" fill="none"/>
  <rect width="95.89" height="95.89" fill="none"/>
  <path d="M82.35,20.75A1.79,1.79,0,0,0,80.91,20H15a2.39,2.39,0,0,0-2,2.63V71.55a2.39,2.39,0,0,0,2,2.63H80.91a1.79,1.79,0,0,0,1.44-.77,2.94,2.94,0,0,0,.6-1.86V22.61A2.92,2.92,0,0,0,82.35,20.75Zm-4.82,7.1L47.79,50.49,18.3,28.64V26.59a1.44,1.44,0,0,1,.3-.93.87.87,0,0,1,.72-.39H76.56a1.2,1.2,0,0,1,1,1.32Z" fill="#fff" fill-rule="evenodd"/>
</svg>
