<svg xmlns="http://www.w3.org/2000/svg" viewBox="0 0 96 96">
  <title>translate</title>
  <rect x="0.37" y="0.36" width="95.28" height="95.28" fill="none"/>
  <path d="M49.92,60a3.24,3.24,0,0,0-.76-3.47l-6.9-6.8.1-.1A57.75,57.75,0,0,0,54.61,28.11H61a3.3,3.3,0,0,0,3.27-3.27v-.07A3.3,3.3,0,0,0,61,21.51H41.18v-3.3a3.3,3.3,0,1,0-6.6,0v3.3H14.74a3.27,3.27,0,0,0,0,6.53h33.6A51.71,51.71,0,0,1,37.88,45.76a51,51,0,0,1-6.8-9.5,2.93,2.93,0,0,0-2.58-1.55,3,3,0,0,0-2.6,4.45,58.28,58.28,0,0,0,7.59,10.59L19.07,64a3.26,3.26,0,0,0,0,4.68,3.31,3.31,0,0,0,4.68,0L37.88,54.51l6.66,6.66A3.28,3.28,0,0,0,49.92,60Zm16-18.71a4.74,4.74,0,0,0-4.46,3.1L49.36,76.75a3.06,3.06,0,0,0,2.87,4.16,3.1,3.1,0,0,0,2.9-2L58.07,71H73.75l3,7.88a3.14,3.14,0,0,0,2.9,2,3.09,3.09,0,0,0,2.9-4.16L70.41,44.41A4.8,4.8,0,0,0,65.93,41.31Zm-5.35,23.1,5.35-14.29,5.34,14.29Z" fill="#fff"/>
</svg>
