<svg xmlns="http://www.w3.org/2000/svg" viewBox="0 0 96 96">
  <title>translate</title>
  <rect x="0.37" y="0.36" width="95.28" height="95.28" fill="none"/>
  <path d="M50.49,62.48a3.89,3.89,0,0,0-.91-4.17l-8.3-8.18L41.4,50A69.55,69.55,0,0,0,56.13,24.08h7.7a4,4,0,0,0,3.93-3.93v-.08a4,4,0,0,0-3.93-3.93H40v-4a4,4,0,0,0-7.94,0v4H8.17a3.94,3.94,0,0,0,0,7.87H48.59A62.1,62.1,0,0,1,36,45.32a61.91,61.91,0,0,1-8.18-11.43A3.51,3.51,0,0,0,24.73,32a3.61,3.61,0,0,0-3.14,5.36,70.11,70.11,0,0,0,9.13,12.75L13.37,67.24a3.93,3.93,0,0,0,0,5.64,4,4,0,0,0,5.64,0l17-17,8,8A3.94,3.94,0,0,0,50.49,62.48ZM69.75,40a5.69,5.69,0,0,0-5.36,3.73L49.82,82.6a3.68,3.68,0,0,0,3.45,5,3.75,3.75,0,0,0,3.5-2.43L60.3,75.7H79.16l3.57,9.48a3.8,3.8,0,0,0,3.49,2.43,3.72,3.72,0,0,0,3.5-5L75.15,43.7A5.79,5.79,0,0,0,69.75,40ZM63.32,67.76l6.43-17.19,6.43,17.19Z" fill="#fff"/>
</svg>
