<svg xmlns="http://www.w3.org/2000/svg" viewBox="0 0 96 96">
  <title>unread</title>
  <g>
    <path d="M48.92,54a2.29,2.29,0,0,1-1,.24,2.2,2.2,0,0,1-.5-.06,2.76,2.76,0,0,1-.55-.19L16.9,39.1v.33l0,28.09a6.22,6.22,0,0,0,6.2,6.2h49.6a6.22,6.22,0,0,0,6.2-6.2V39.09Z" fill="#fff"/>
    <path d="M17.35,34.18,47.89,49.34,78.41,34.19a2,2,0,0,1,.47-.17v-3.7a6.22,6.22,0,0,0-6.2-6.2H23.08a6.19,6.19,0,0,0-6.17,6.2V34A2.32,2.32,0,0,1,17.35,34.18Z" fill="#fff"/>
  </g>
  <rect width="96" height="96" fill="none"/>
</svg>
