<svg xmlns="http://www.w3.org/2000/svg" viewBox="0 0 30 120">
  <title>close-linux</title>
  <g>
    <circle cx="15" cy="15" r="14.75" fill="#e86941"/>
    <path d="M15,.5A14.5,14.5,0,1,1,.5,15,14.51,14.51,0,0,1,15,.5M15,0A15,15,0,1,0,30,15,15,15,0,0,0,15,0Z" fill="#77635b"/>
  </g>
  <g>
    <circle cx="15" cy="45" r="14.75" fill="#f3906f"/>
    <path d="M15,30.5A14.5,14.5,0,1,1,.5,45,14.51,14.51,0,0,1,15,30.5m0-.5A15,15,0,1,0,30,45,15,15,0,0,0,15,30Z" fill="#7c6a65"/>
  </g>
  <g>
    <circle cx="15" cy="75" r="14.75" fill="#eb7049"/>
    <path d="M15,60.5A14.5,14.5,0,1,1,.5,75,14.51,14.51,0,0,1,15,60.5m0-.5A15,15,0,1,0,30,75,15,15,0,0,0,15,60Z" fill="#796861"/>
  </g>
  <g>
    <circle cx="15" cy="105" r="14.75" fill="#e9e9e9"/>
    <path d="M15,90.5A14.5,14.5,0,1,1,.5,105,14.51,14.51,0,0,1,15,90.5m0-.5a15,15,0,1,0,15,15A15,15,0,0,0,15,90Z" fill="#bababa"/>
  </g>
  <path d="M19.64,39,15,43.65,10.35,39,9,40.34,13.66,45,9,49.64,10.35,51,15,46.33,19.66,51,21,49.64,16.35,45,21,40.34Z" fill="#474747"/>
  <path d="M19.64,9,15,13.66,10.35,9,9,10.35,13.66,15,9,19.65,10.35,21,15,16.34,19.66,21,21,19.65,16.35,15,21,10.35Z" fill="#474747"/>
  <path d="M19.64,69,15,73.65,10.35,69,9,70.34,13.66,75,9,79.64,10.35,81,15,76.33,19.66,81,21,79.64,16.35,75,21,70.34Z" fill="#393939"/>
</svg>
