<svg xmlns="http://www.w3.org/2000/svg" viewBox="0 0 30 30">
  <title>close_hover</title>
  <g>
    <circle cx="15" cy="15" r="14.75" fill="#ff5f56" />
    <path
      d="M15,.5A14.5,14.5,0,1,1,.5,15,14.51,14.51,0,0,1,15,.5M15,0A15,15,0,1,0,30,15,15,15,0,0,0,15,0Z"
      fill="#e14038"
    />
  </g>
  <path
    d="M22.25,20.46,16.78,15l5.46-5.48a1.26,1.26,0,0,0,0-1.78h0a1.26,1.26,0,0,0-.9-.37h0a1.26,1.26,0,0,0-.89.37L15,13.22,9.53,7.74a1.26,1.26,0,0,0-.89-.37h0a1.22,1.22,0,0,0-.89.37,1.26,1.26,0,0,0,0,1.78L13.22,15,7.75,20.46a1.26,1.26,0,0,0,1.78,1.78L15,16.76l5.47,5.48a1.26,1.26,0,0,0,.89.37,1.22,1.22,0,0,0,.89-.37A1.25,1.25,0,0,0,22.25,20.46Z"
    fill="#900"
  />
</svg>