<svg xmlns="http://www.w3.org/2000/svg" viewBox="0 0 30 120">
  <title>close_1</title>
  <g>
    <circle cx="15" cy="15" r="14.75" fill="#ff5f56"/>
    <path d="M15,.5A14.5,14.5,0,1,1,.5,15,14.51,14.51,0,0,1,15,.5M15,0A15,15,0,1,0,30,15,15,15,0,0,0,15,0Z" fill="#e14038"/>
  </g>
  <g>
    <circle cx="15" cy="45" r="14.75" fill="#ff5f56"/>
    <path d="M15,30.5A14.5,14.5,0,1,1,.5,45,14.51,14.51,0,0,1,15,30.5m0-.5A15,15,0,1,0,30,45,15,15,0,0,0,15,30Z" fill="#e14038"/>
  </g>
  <g>
    <circle cx="15" cy="75" r="14.75" fill="#cc4848"/>
    <path d="M15,60.5A14.5,14.5,0,1,1,.5,75,14.51,14.51,0,0,1,15,60.5m0-.5A15,15,0,1,0,30,75,15,15,0,0,0,15,60Z" fill="#b2322f"/>
  </g>
  <circle cx="15" cy="105" r="15" fill="#dedede"/>
  <path d="M22.25,50.46,16.78,45l5.46-5.48a1.26,1.26,0,0,0,0-1.78h0a1.26,1.26,0,0,0-.9-.37h0a1.26,1.26,0,0,0-.89.37L15,43.22,9.53,37.74a1.26,1.26,0,0,0-.89-.37h0a1.22,1.22,0,0,0-.89.37,1.26,1.26,0,0,0,0,1.78L13.22,45,7.75,50.46a1.26,1.26,0,0,0,1.78,1.78L15,46.76l5.47,5.48a1.26,1.26,0,0,0,.89.37,1.22,1.22,0,0,0,.89-.37A1.25,1.25,0,0,0,22.25,50.46Z" fill="#900"/>
  <path d="M22.25,80.46,16.78,75l5.46-5.48a1.26,1.26,0,0,0,0-1.78h0a1.26,1.26,0,0,0-.9-.37h0a1.26,1.26,0,0,0-.89.37L15,73.22,9.53,67.74a1.26,1.26,0,0,0-.89-.37h0a1.22,1.22,0,0,0-.89.37,1.26,1.26,0,0,0,0,1.78L13.22,75,7.75,80.46a1.26,1.26,0,0,0,1.78,1.78L15,76.76l5.47,5.48a1.26,1.26,0,0,0,.89.37,1.22,1.22,0,0,0,.89-.37A1.25,1.25,0,0,0,22.25,80.46Z" fill="#7f0000"/>
</svg>
