<svg xmlns="http://www.w3.org/2000/svg" viewBox="0 0 30 120">
  <title>collapse</title>
  <g>
    <circle cx="15" cy="15" r="14.75" fill="#28ca40"/>
    <path d="M15,.5A14.5,14.5,0,1,1,.5,15,14.51,14.51,0,0,1,15,.5M15,0A15,15,0,1,0,30,15,15,15,0,0,0,15,0Z" fill="#00a718"/>
  </g>
  <g>
    <circle cx="15" cy="45" r="14.75" fill="#28ca40"/>
    <path d="M15,30.5A14.5,14.5,0,1,1,.5,45,14.51,14.51,0,0,1,15,30.5m0-.5A15,15,0,1,0,30,45,15,15,0,0,0,15,30Z" fill="#00a718"/>
  </g>
  <g>
    <circle cx="15" cy="75" r="14.75" fill="#1f992d"/>
    <path d="M15,60.5A14.5,14.5,0,1,1,.5,75,14.51,14.51,0,0,1,15,60.5m0-.5A15,15,0,1,0,30,75,15,15,0,0,0,15,60Z" fill="#007f0f"/>
  </g>
  <circle cx="15" cy="105" r="15" fill="#dedede"/>
  <g>
    <path d="M15.25,64.5v8.25a2,2,0,0,0,2,2H25.5Z" fill="#006100"/>
    <path d="M14.75,85.5V77.25a2,2,0,0,0-2-2H4.5Z" fill="#006100"/>
  </g>
  <g>
    <path d="M15.25,34.5v8.25a2,2,0,0,0,2,2H25.5Z" fill="#006100"/>
    <path d="M14.75,55.5V47.25a2,2,0,0,0-2-2H4.5Z" fill="#006100"/>
  </g>
</svg>
