<svg xmlns="http://www.w3.org/2000/svg" viewBox="0 0 30 120">
  <title>maximize-linux</title>
  <g>
    <circle cx="15" cy="15" r="14.75" fill="#e9e9e9"/>
    <path d="M15,.5A14.5,14.5,0,1,1,.5,15,14.51,14.51,0,0,1,15,.5M15,0A15,15,0,1,0,30,15,15,15,0,0,0,15,0Z" fill="#bababa"/>
  </g>
  <g>
    <circle cx="15" cy="45" r="14.75" fill="#e9e9e9"/>
    <path d="M15,30.5A14.5,14.5,0,1,1,.5,45,14.51,14.51,0,0,1,15,30.5m0-.5A15,15,0,1,0,30,45,15,15,0,0,0,15,30Z" fill="#bababa"/>
  </g>
  <g>
    <circle cx="15" cy="75" r="14.75" fill="#dbdbdb"/>
    <path d="M15,60.5A14.5,14.5,0,1,1,.5,75,14.51,14.51,0,0,1,15,60.5m0-.5A15,15,0,1,0,30,75,15,15,0,0,0,15,60Z" fill="#bababa"/>
  </g>
  <g>
    <circle cx="15" cy="105" r="14.75" fill="#e9e9e9"/>
    <path d="M15,90.5A14.5,14.5,0,1,1,.5,105,14.51,14.51,0,0,1,15,90.5m0-.5a15,15,0,1,0,15,15A15,15,0,0,0,15,90Z" fill="#bababa"/>
  </g>
  <path d="M20,10V20H10V10H20m0-2H10a2,2,0,0,0-2,2V20a2,2,0,0,0,2,2H20a2,2,0,0,0,2-2V10a2,2,0,0,0-2-2Z" fill="#8e8e8e"/>
  <path d="M20,40V50H10V40H20m0-2H10a2,2,0,0,0-2,2V50a2,2,0,0,0,2,2H20a2,2,0,0,0,2-2V40a2,2,0,0,0-2-2Z" fill="#5b5b5b"/>
  <path d="M20,70V80H10V70H20m0-2H10a2,2,0,0,0-2,2V80a2,2,0,0,0,2,2H20a2,2,0,0,0,2-2V70a2,2,0,0,0-2-2Z" fill="#5b5b5b"/>
</svg>
