<svg xmlns="http://www.w3.org/2000/svg" viewBox="0 0 30 120">
  <title>maximize</title>
  <g>
    <circle cx="15" cy="15" r="14.75" fill="#28ca40"/>
    <path d="M15,.5A14.5,14.5,0,1,1,.5,15,14.51,14.51,0,0,1,15,.5M15,0A15,15,0,1,0,30,15,15,15,0,0,0,15,0Z" fill="#00a718"/>
  </g>
  <g>
    <circle cx="15" cy="45" r="14.75" fill="#28ca40"/>
    <path d="M15,30.5A14.5,14.5,0,1,1,.5,45,14.51,14.51,0,0,1,15,30.5m0-.5A15,15,0,1,0,30,45,15,15,0,0,0,15,30Z" fill="#00a718"/>
  </g>
  <g>
    <circle cx="15" cy="75" r="14.75" fill="#1f992d"/>
    <path d="M15,60.5A14.5,14.5,0,1,1,.5,75,14.51,14.51,0,0,1,15,60.5m0-.5A15,15,0,1,0,30,75,15,15,0,0,0,15,60Z" fill="#007f0f"/>
  </g>
  <circle cx="15" cy="105" r="15" fill="#dedede"/>
  <path d="M24.76,44.11a1.23,1.23,0,0,0-.88-.37H16.25V36.12A1.25,1.25,0,0,0,15,34.88h0a1.22,1.22,0,0,0-.88.37,1.2,1.2,0,0,0-.37.88l0,7.62H6.12a1.27,1.27,0,0,0-.88.36,1.22,1.22,0,0,0-.36.88,1.24,1.24,0,0,0,1.24,1.25h7.64v7.63A1.26,1.26,0,0,0,15,55.12a1.25,1.25,0,0,0,1.25-1.25V46.23h7.64a1.22,1.22,0,0,0,.88-.37,1.23,1.23,0,0,0,.37-.88A1.26,1.26,0,0,0,24.76,44.11Z" fill="#006100"/>
  <path d="M24.76,74.11a1.27,1.27,0,0,0-.88-.36H16.25V66.12A1.25,1.25,0,0,0,15,64.88h0a1.26,1.26,0,0,0-1.25,1.25l0,7.62H6.12a1.27,1.27,0,0,0-.88.36,1.19,1.19,0,0,0-.36.89,1.24,1.24,0,0,0,1.24,1.24h7.64v7.62a1.25,1.25,0,0,0,2.5,0V76.23h7.64a1.23,1.23,0,0,0,.88-.37,1.17,1.17,0,0,0,.36-.88A1.22,1.22,0,0,0,24.76,74.11Z" fill="#006100"/>
</svg>
