<svg xmlns="http://www.w3.org/2000/svg" viewBox="0 0 30 30">
  <title>maximize_hover</title>
  <g>
    <circle cx="15" cy="15" r="14.75" fill="#28ca40" />
    <path
      d="M15,.5A14.5,14.5,0,1,1,.5,15,14.51,14.51,0,0,1,15,.5M15,0A15,15,0,1,0,30,15,15,15,0,0,0,15,0Z"
      fill="#00a718"
    />
  </g>
  <path
    d="M24.76,14.11a1.23,1.23,0,0,0-.88-.37H16.25V6.12A1.25,1.25,0,0,0,15,4.88h0a1.22,1.22,0,0,0-.88.37,1.2,1.2,0,0,0-.37.88l0,7.62H6.12a1.27,1.27,0,0,0-.88.36,1.22,1.22,0,0,0-.36.88,1.24,1.24,0,0,0,1.24,1.25h7.64v7.63A1.26,1.26,0,0,0,15,25.12a1.25,1.25,0,0,0,1.25-1.25V16.23h7.64a1.22,1.22,0,0,0,.88-.37,1.23,1.23,0,0,0,.37-.88A1.26,1.26,0,0,0,24.76,14.11Z"
    fill="#006100"
  />
</svg>