<svg xmlns="http://www.w3.org/2000/svg" viewBox="0 0 30 120">
  <title>minimize-linux</title>
  <g>
    <circle cx="15" cy="15" r="14.75" fill="#e9e9e9"/>
    <path d="M15,.5A14.5,14.5,0,1,1,.5,15,14.51,14.51,0,0,1,15,.5M15,0A15,15,0,1,0,30,15,15,15,0,0,0,15,0Z" fill="#bababa"/>
  </g>
  <g>
    <circle cx="15" cy="45" r="14.75" fill="#e9e9e9"/>
    <path d="M15,30.5A14.5,14.5,0,1,1,.5,45,14.51,14.51,0,0,1,15,30.5m0-.5A15,15,0,1,0,30,45,15,15,0,0,0,15,30Z" fill="#bababa"/>
  </g>
  <g>
    <circle cx="15" cy="75" r="14.75" fill="#dbdbdb"/>
    <path d="M15,60.5A14.5,14.5,0,1,1,.5,75,14.51,14.51,0,0,1,15,60.5m0-.5A15,15,0,1,0,30,75,15,15,0,0,0,15,60Z" fill="#bababa"/>
  </g>
  <g>
    <circle cx="15" cy="105" r="14.75" fill="#e9e9e9"/>
    <path d="M15,90.5A14.5,14.5,0,1,1,.5,105,14.51,14.51,0,0,1,15,90.5m0-.5a15,15,0,1,0,15,15A15,15,0,0,0,15,90Z" fill="#bababa"/>
  </g>
  <path d="M16.34,43.92h-8v2.31H18.66l3,0V43.9l-3,0Z" fill="#5b5b5b"/>
  <path d="M16.34,73.93h-8v2.31H18.66l3,0V73.91l-3,0Z" fill="#5b5b5b"/>
  <g opacity="0.6">
    <path d="M16.34,13.85h-8v2.31h8l2.3,0,3,0V13.83l-3,0Z" fill="#8e8e8e"/>
  </g>
</svg>
