<svg xmlns="http://www.w3.org/2000/svg" viewBox="0 0 30 120">
  <title>minimize</title>
  <g>
    <circle cx="15" cy="15" r="14.75" fill="#febb2d"/>
    <path d="M15,.5A14.5,14.5,0,1,1,.5,15,14.51,14.51,0,0,1,15,.5M15,0A15,15,0,1,0,30,15,15,15,0,0,0,15,0Z" fill="#cc9127"/>
  </g>
  <g>
    <circle cx="15" cy="45" r="14.75" fill="#febb2d"/>
    <path d="M15,30.5A14.5,14.5,0,1,1,.5,45,14.51,14.51,0,0,1,15,30.5m0-.5A15,15,0,1,0,30,45,15,15,0,0,0,15,30Z" fill="#cc9127"/>
  </g>
  <g>
    <circle cx="15" cy="75" r="14.75" fill="#cc9127"/>
    <path d="M15,60.5A14.5,14.5,0,1,1,.5,75,14.51,14.51,0,0,1,15,60.5m0-.5A15,15,0,1,0,30,75,15,15,0,0,0,15,60Z" fill="#b27926"/>
  </g>
  <circle cx="15" cy="105" r="15" fill="#dedede"/>
  <path d="M13.84,43.84h-8A1.16,1.16,0,0,0,4.68,45h0a1.16,1.16,0,0,0,1.16,1.16H24.15A1.16,1.16,0,0,0,25.3,45h0a1.16,1.16,0,0,0-1.16-1.16l-8,0Z" fill="#975500"/>
  <path d="M13.84,73.85h-8A1.15,1.15,0,0,0,4.68,75h0a1.16,1.16,0,0,0,1.16,1.16h8l2.3,0,8,0A1.15,1.15,0,0,0,25.3,75h0a1.16,1.16,0,0,0-1.16-1.16l-8,0Z" fill="#975500"/>
</svg>
